<svg xmlns="http://www.w3.org/2000/svg" viewBox="0 -0.5 111 141" shape-rendering="crispEdges">
<metadata>Made with Pixels to Svg https://codepen.io/shshaw/pen/XbxvNj</metadata>
<path stroke="#dc3b39" d="M0 0h1M2 0h2M5 0h2M8 0h2M11 0h2M14 0h2M17 0h2M20 0h2M23 0h2M26 0h2M29 0h2M32 0h2M35 0h2M38 0h2M41 0h2M44 0h2M47 0h2M50 0h2M53 0h2M56 0h2M59 0h2M62 0h2M65 0h2M68 0h2M71 0h2M74 0h2M77 0h2M80 0h2M83 0h2M86 0h2M89 0h2M92 0h2M95 0h2M98 0h2M101 0h2M104 0h2M107 0h2M110 0h1M0 1h1M2 1h2M5 1h2M8 1h2M11 1h2M14 1h2M17 1h2M20 1h2M23 1h2M26 1h2M29 1h2M32 1h2M35 1h2M38 1h2M41 1h2M44 1h2M47 1h2M50 1h2M53 1h2M56 1h2M59 1h2M62 1h2M65 1h2M68 1h2M71 1h2M74 1h2M77 1h2M80 1h2M83 1h2M86 1h2M89 1h2M92 1h2M95 1h2M98 1h2M101 1h2M104 1h2M107 1h2M110 1h1M0 2h1M2 2h2M5 2h2M8 2h2M11 2h2M14 2h2M17 2h2M20 2h2M23 2h2M26 2h2M29 2h2M32 2h2M35 2h2M38 2h2M41 2h2M44 2h2M47 2h2M50 2h2M53 2h2M56 2h2M59 2h2M62 2h2M65 2h2M68 2h2M71 2h2M74 2h2M77 2h2M80 2h2M83 2h2M86 2h2M89 2h2M92 2h2M95 2h2M98 2h2M101 2h2M104 2h2M107 2h2M110 2h1M0 3h1M2 3h2M5 3h2M8 3h2M11 3h2M14 3h2M17 3h2M20 3h2M23 3h2M26 3h2M29 3h2M32 3h2M35 3h2M38 3h2M41 3h2M44 3h2M47 3h2M50 3h2M53 3h2M56 3h2M59 3h2M62 3h2M65 3h2M68 3h2M71 3h2M74 3h2M77 3h2M80 3h2M83 3h2M86 3h2M89 3h2M92 3h2M95 3h2M98 3h2M101 3h2M104 3h2M107 3h2M110 3h1M0 4h1M2 4h2M5 4h2M8 4h2M11 4h2M14 4h2M17 4h2M20 4h2M23 4h2M26 4h2M29 4h2M32 4h2M35 4h2M38 4h2M41 4h2M44 4h2M47 4h2M50 4h2M53 4h2M56 4h2M59 4h2M62 4h2M65 4h2M68 4h2M71 4h2M74 4h2M77 4h2M80 4h2M83 4h2M86 4h2M89 4h2M92 4h2M95 4h2M98 4h2M101 4h2M104 4h2M107 4h2M110 4h1M0 5h1M2 5h2M5 5h2M8 5h2M11 5h2M14 5h2M17 5h2M20 5h2M23 5h2M26 5h2M29 5h2M32 5h2M35 5h2M38 5h2M41 5h2M44 5h2M47 5h2M50 5h2M53 5h2M56 5h2M59 5h2M62 5h2M65 5h2M68 5h2M71 5h2M74 5h2M77 5h2M80 5h2M83 5h2M86 5h2M89 5h2M92 5h2M95 5h2M98 5h2M101 5h2M104 5h2M107 5h2M110 5h1M0 6h1M2 6h2M5 6h2M8 6h2M11 6h2M14 6h2M17 6h2M20 6h2M23 6h2M26 6h2M29 6h2M32 6h2M35 6h2M38 6h2M41 6h2M44 6h2M47 6h2M50 6h2M53 6h2M56 6h2M59 6h2M62 6h2M65 6h2M68 6h2M71 6h2M74 6h2M77 6h2M80 6h2M83 6h2M86 6h2M89 6h2M92 6h2M95 6h2M98 6h2M101 6h2M104 6h2M107 6h2M110 6h1M0 7h1M2 7h2M5 7h2M8 7h2M11 7h2M14 7h2M17 7h2M20 7h2M23 7h2M26 7h2M29 7h2M32 7h2M35 7h2M38 7h2M41 7h2M44 7h2M47 7h2M50 7h2M53 7h2M56 7h2M59 7h2M62 7h2M65 7h2M68 7h2M71 7h2M74 7h2M77 7h2M80 7h2M83 7h2M86 7h2M89 7h2M92 7h2M95 7h2M98 7h2M101 7h2M104 7h2M107 7h2M110 7h1M0 8h1M2 8h2M5 8h2M8 8h2M11 8h2M14 8h2M17 8h2M20 8h2M23 8h2M26 8h2M29 8h2M32 8h2M35 8h2M38 8h2M41 8h2M44 8h2M47 8h2M50 8h2M53 8h2M56 8h2M59 8h2M62 8h2M65 8h2M68 8h2M71 8h2M74 8h2M77 8h2M80 8h2M83 8h2M86 8h2M89 8h2M92 8h2M95 8h2M98 8h2M101 8h2M104 8h2M107 8h2M110 8h1M0 9h2M3 9h1M5 9h2M8 9h3M12 9h1M14 9h3M18 9h1M20 9h3M24 9h1M26 9h3M30 9h1M32 9h2M35 9h2M38 9h2M41 9h2M44 9h2M47 9h2M50 9h2M53 9h2M56 9h2M59 9h2M62 9h2M65 9h2M68 9h2M71 9h3M75 9h1M77 9h3M81 9h1M83 9h2M86 9h2M89 9h2M92 9h2M95 9h2M98 9h2M101 9h3M105 9h1M107 9h2M110 9h1M0 10h1M2 10h2M5 10h2M8 10h2M11 10h2M14 10h2M17 10h2M20 10h2M23 10h2M26 10h2M29 10h2M32 10h2M35 10h2M38 10h2M41 10h2M44 10h2M47 10h2M50 10h2M53 10h2M56 10h2M59 10h2M62 10h2M65 10h2M68 10h2M71 10h2M74 10h2M77 10h2M80 10h2M83 10h2M86 10h2M89 10h2M92 10h2M95 10h2M98 10h2M101 10h2M104 10h2M107 10h2M110 10h1M1 11h3M5 11h2M8 11h1M10 11h3M14 11h1M16 11h3M20 11h1M22 11h3M26 11h1M28 11h3M32 11h2M35 11h2M38 11h2M41 11h2M44 11h2M47 11h2M50 11h2M53 11h2M56 11h2M59 11h2M62 11h2M65 11h2M68 11h2M71 11h1M73 11h3M77 11h1M79 11h3M83 11h2M86 11h2M89 11h2M92 11h2M95 11h2M98 11h2M101 11h1M103 11h3M107 11h2M110 11h1M0 12h2M3 12h2M6 12h2M9 12h2M12 12h2M15 12h2M18 12h2M21 12h2M24 12h2M27 12h2M30 12h2M33 12h2M36 12h1M38 12h3M42 12h2M45 12h1M47 12h3M51 12h2M54 12h2M57 12h2M60 12h2M63 12h2M66 12h1M68 12h3M72 12h2M75 12h2M78 12h2M81 12h1M83 12h3M87 12h2M90 12h2M93 12h2M96 12h1M98 12h2M101 12h3M105 12h1M107 12h2M110 12h1M0 13h1M2 13h2M5 13h2M8 13h2M11 13h2M14 13h2M17 13h2M20 13h2M23 13h2M26 13h2M29 13h2M32 13h2M35 13h2M38 13h2M41 13h2M44 13h2M47 13h2M50 13h2M53 13h2M56 13h2M59 13h2M62 13h2M65 13h2M68 13h2M71 13h2M74 13h2M77 13h2M80 13h2M83 13h2M86 13h2M89 13h2M92 13h2M95 13h2M98 13h2M101 13h2M104 13h2M107 13h2M110 13h1M1 14h2M4 14h2M7 14h2M10 14h2M13 14h2M16 14h2M19 14h2M22 14h2M25 14h2M28 14h2M31 14h2M34 14h3M38 14h1M40 14h2M43 14h3M47 14h1M49 14h2M52 14h2M55 14h2M58 14h2M61 14h2M64 14h3M68 14h1M70 14h2M73 14h2M76 14h2M79 14h3M83 14h1M85 14h2M88 14h2M91 14h2M94 14h3M98 14h2M101 14h1M103 14h3M107 14h2M110 14h1M2 15h3M6 15h2M9 15h2M12 15h2M15 15h2M18 15h2M21 15h2M24 15h2M27 15h2M30 15h2M33 15h2M36 15h2M39 15h2M42 15h2M45 15h2M48 15h2M51 15h2M54 15h2M57 15h2M60 15h2M63 15h2M66 15h2M69 15h2M72 15h2M77 15h1M80 15h1M83 15h1M86 15h1M89 15h1M92 15h1M95 15h1M98 15h3M102 15h2M105 15h2M108 15h1M110 15h1M1 16h1M3 16h1M5 16h2M8 16h2M11 16h2M14 16h2M17 16h2M20 16h2M23 16h2M26 16h2M29 16h2M32 16h2M35 16h2M38 16h2M41 16h2M44 16h2M47 16h2M50 16h2M53 16h2M56 16h2M59 16h2M62 16h2M65 16h2M68 16h2M71 16h2M74 16h1M76 16h1M79 16h1M82 16h1M85 16h1M88 16h1M91 16h1M94 16h1M97 16h1M99 16h1M101 16h2M104 16h2M107 16h2M110 16h1M0 17h1M4 17h2M7 17h2M10 17h2M13 17h2M16 17h2M19 17h2M22 17h2M25 17h2M28 17h2M31 17h2M34 17h2M37 17h2M40 17h2M43 17h2M46 17h2M49 17h2M52 17h2M55 17h2M58 17h2M61 17h2M64 17h2M67 17h2M70 17h2M73 17h3M78 17h1M81 17h1M84 17h1M87 17h1M90 17h1M93 17h1M96 17h1M100 17h2M103 17h2M106 17h3M110 17h1M2 18h3M8 18h3M12 18h2M15 18h2M20 18h3M24 18h2M27 18h2M30 18h2M33 18h2M36 18h2M39 18h2M42 18h2M45 18h2M48 18h2M53 18h3M57 18h2M60 18h2M63 18h2M68 18h1M71 18h3M77 18h1M80 18h1M83 18h1M86 18h1M89 18h1M92 18h1M95 18h1M98 18h1M101 18h3M105 18h2M108 18h2M1 19h1M3 19h1M5 19h1M7 19h1M9 19h1M11 19h2M14 19h2M17 19h1M19 19h1M21 19h1M23 19h2M26 19h2M29 19h2M32 19h2M35 19h2M38 19h2M41 19h2M44 19h2M47 19h2M50 19h1M52 19h1M54 19h1M56 19h2M59 19h2M62 19h2M65 19h1M67 19h1M70 19h1M72 19h1M74 19h1M76 19h1M79 19h1M82 19h1M85 19h1M88 19h1M91 19h1M94 19h1M97 19h1M100 19h1M102 19h1M104 19h2M107 19h2M110 19h1M0 20h1M4 20h3M10 20h2M13 20h2M16 20h3M22 20h2M25 20h2M28 20h2M31 20h2M34 20h2M37 20h2M40 20h2M43 20h2M46 20h2M49 20h3M55 20h2M58 20h2M61 20h2M64 20h3M69 20h1M73 20h3M78 20h1M81 20h1M84 20h1M87 20h1M90 20h1M93 20h1M96 20h1M99 20h1M103 20h2M106 20h2M109 20h2M2 21h3M8 21h3M12 21h2M15 21h2M20 21h3M24 21h2M27 21h2M30 21h2M33 21h2M36 21h2M39 21h2M42 21h2M45 21h2M48 21h2M53 21h1M56 21h3M62 21h3M68 21h1M71 21h3M77 21h1M80 21h1M83 21h1M86 21h1M89 21h1M92 21h1M95 21h1M98 21h1M101 21h3M105 21h2M108 21h2M1 22h1M3 22h1M5 22h1M7 22h1M9 22h1M11 22h2M14 22h2M17 22h1M19 22h1M21 22h1M23 22h2M26 22h2M29 22h2M32 22h2M35 22h2M38 22h2M41 22h2M44 22h2M47 22h2M50 22h1M52 22h1M55 22h1M57 22h1M59 22h1M61 22h1M63 22h1M65 22h1M67 22h1M70 22h1M72 22h1M74 22h1M76 22h1M79 22h1M82 22h1M85 22h1M88 22h1M91 22h1M94 22h1M97 22h1M100 22h1M102 22h1M104 22h2M107 22h2M110 22h1M0 23h1M4 23h3M10 23h2M13 23h2M16 23h3M22 23h2M25 23h2M28 23h2M31 23h2M34 23h2M37 23h2M40 23h2M43 23h2M46 23h2M49 23h3M54 23h1M58 23h3M64 23h3M69 23h1M73 23h3M78 23h1M81 23h1M84 23h1M87 23h1M90 23h1M93 23h1M96 23h1M99 23h1M103 23h2M106 23h2M109 23h2M2 24h1M5 24h1M8 24h3M12 24h2M15 24h2M20 24h3M24 24h2M27 24h2M30 24h2M33 24h2M36 24h2M39 24h2M42 24h2M45 24h2M48 24h2M53 24h1M56 24h1M59 24h1M62 24h1M65 24h1M68 24h1M71 24h4M77 24h1M80 24h1M83 24h1M86 24h1M89 24h1M92 24h1M95 24h1M98 24h1M101 24h1M104 24h1M107 24h1M110 24h1M1 25h1M4 25h1M7 25h1M9 25h1M11 25h2M14 25h2M17 25h1M19 25h1M21 25h1M23 25h2M26 25h2M29 25h2M32 25h2M35 25h2M38 25h2M41 25h2M44 25h2M47 25h2M50 25h1M52 25h1M55 25h1M58 25h1M61 25h1M64 25h1M67 25h1M70 25h1M72 25h1M74 25h1M76 25h1M79 25h1M82 25h1M85 25h1M88 25h1M91 25h1M94 25h1M97 25h1M100 25h1M103 25h1M106 25h1M109 25h1M0 26h1M3 26h1M6 26h1M10 26h2M13 26h2M16 26h3M22 26h2M25 26h2M28 26h2M31 26h2M34 26h2M37 26h2M40 26h2M43 26h2M46 26h2M49 26h3M54 26h1M57 26h1M60 26h1M63 26h1M66 26h1M69 26h1M72 26h4M78 26h1M81 26h1M84 26h1M87 26h1M90 26h1M93 26h1M96 26h1M99 26h1M102 26h1M105 26h1M108 26h1M2 27h1M5 27h1M8 27h1M11 27h3M15 27h2M20 27h1M23 27h1M26 27h1M29 27h1M32 27h1M35 27h1M38 27h1M41 27h3M45 27h2M50 27h1M53 27h1M56 27h1M59 27h1M62 27h1M65 27h1M68 27h1M71 27h1M74 27h1M77 27h1M80 27h1M83 27h1M86 27h1M89 27h1M92 27h1M95 27h1M98 27h1M101 27h1M104 27h1M107 27h1M110 27h1M1 28h1M4 28h1M7 28h1M10 28h1M12 28h1M14 28h2M17 28h1M19 28h1M22 28h1M25 28h1M28 28h1M31 28h1M34 28h1M37 28h1M40 28h1M42 28h1M44 28h2M47 28h1M49 28h1M52 28h1M55 28h1M58 28h1M61 28h1M64 28h1M67 28h1M70 28h1M73 28h1M76 28h1M79 28h1M82 28h1M85 28h1M88 28h1M91 28h1M94 28h1M97 28h1M100 28h1M103 28h1M106 28h1M109 28h1M0 29h1M3 29h1M6 29h1M9 29h1M13 29h2M16 29h3M21 29h1M24 29h1M27 29h1M30 29h1M33 29h1M36 29h1M39 29h1M43 29h2M46 29h3M51 29h1M54 29h1M57 29h1M60 29h1M63 29h1M66 29h1M69 29h1M72 29h1M75 29h1M78 29h1M81 29h1M84 29h1M87 29h1M90 29h1M93 29h1M96 29h1M99 29h1M102 29h1M105 29h1M108 29h1M2 30h1M5 30h1M8 30h1M11 30h1M14 30h1M17 30h1M20 30h1M23 30h1M26 30h1M29 30h1M32 30h1M35 30h1M38 30h1M41 30h3M45 30h2M50 30h1M53 30h1M56 30h1M59 30h1M62 30h1M65 30h1M68 30h1M71 30h1M74 30h1M77 30h1M80 30h1M83 30h1M86 30h1M89 30h1M92 30h1M95 30h1M98 30h1M101 30h1M104 30h1M107 30h1M110 30h1M1 31h1M4 31h1M7 31h1M10 31h1M13 31h1M16 31h1M19 31h1M22 31h1M25 31h1M28 31h1M31 31h1M34 31h1M37 31h1M40 31h1M42 31h1M44 31h2M47 31h1M49 31h1M52 31h1M55 31h1M58 31h1M61 31h1M64 31h1M67 31h1M70 31h1M73 31h1M76 31h1M79 31h1M82 31h1M85 31h1M88 31h1M91 31h1M94 31h1M97 31h1M100 31h1M103 31h1M106 31h1M109 31h1M0 32h1M3 32h1M6 32h1M9 32h1M12 32h1M15 32h1M18 32h1M21 32h1M24 32h1M27 32h1M30 32h1M33 32h1M36 32h1M39 32h1M43 32h2M46 32h3M51 32h1M54 32h1M57 32h1M60 32h1M63 32h1M66 32h1M69 32h1M72 32h1M75 32h1M78 32h1M81 32h1M84 32h1M87 32h1M90 32h1M93 32h1M96 32h1M99 32h1M102 32h1M105 32h1M108 32h1M2 33h1M5 33h1M8 33h1M11 33h1M14 33h1M17 33h1M20 33h1M23 33h1M26 33h1M29 33h1M32 33h1M35 33h1M38 33h1M41 33h3M47 33h1M50 33h1M53 33h1M56 33h1M59 33h1M62 33h1M65 33h1M68 33h1M71 33h1M74 33h4M80 33h1M83 33h1M86 33h1M89 33h1M92 33h1M95 33h1M98 33h1M101 33h1M104 33h1M107 33h1M110 33h1M1 34h1M4 34h1M7 34h1M10 34h1M13 34h1M16 34h1M19 34h1M22 34h1M25 34h1M28 34h1M31 34h1M34 34h1M37 34h1M40 34h1M42 34h1M44 34h1M46 34h1M49 34h1M52 34h1M55 34h1M58 34h1M61 34h1M64 34h1M67 34h1M70 34h1M73 34h1M75 34h1M77 34h1M79 34h1M82 34h1M85 34h1M88 34h1M91 34h1M94 34h1M97 34h1M100 34h1M103 34h1M106 34h1M109 34h1M0 35h1M3 35h1M6 35h1M9 35h1M12 35h1M15 35h1M18 35h1M21 35h1M24 35h1M27 35h1M30 35h1M33 35h1M36 35h1M39 35h1M43 35h3M48 35h1M51 35h1M54 35h1M57 35h1M60 35h1M63 35h1M66 35h1M69 35h1M72 35h1M75 35h4M81 35h1M84 35h1M87 35h1M90 35h1M93 35h1M96 35h1M99 35h1M102 35h1M105 35h1M108 35h1M2 36h1M5 36h1M8 36h1M11 36h1M14 36h1M17 36h1M20 36h1M23 36h1M26 36h1M29 36h1M32 36h1M35 36h1M38 36h1M41 36h3M47 36h1M50 36h1M53 36h1M56 36h1M59 36h1M62 36h1M65 36h1M68 36h1M71 36h1M74 36h1M77 36h1M80 36h1M83 36h1M86 36h1M89 36h1M92 36h1M95 36h1M98 36h1M101 36h1M104 36h1M107 36h1M110 36h1M1 37h1M4 37h1M7 37h1M10 37h1M13 37h1M16 37h1M19 37h1M22 37h1M25 37h1M28 37h1M31 37h1M34 37h1M37 37h1M40 37h1M42 37h1M44 37h1M46 37h1M49 37h1M52 37h1M55 37h1M58 37h1M61 37h1M64 37h1M67 37h1M70 37h1M73 37h1M76 37h1M79 37h1M82 37h1M85 37h1M88 37h1M91 37h1M94 37h1M97 37h1M100 37h1M103 37h1M106 37h1M109 37h1M0 38h1M3 38h1M6 38h1M9 38h1M12 38h1M15 38h1M18 38h1M21 38h1M24 38h1M27 38h1M30 38h1M33 38h1M36 38h1M39 38h1M43 38h3M48 38h1M51 38h1M54 38h1M57 38h1M60 38h1M63 38h1M66 38h1M69 38h1M72 38h1M75 38h1M78 38h1M81 38h1M84 38h1M87 38h1M90 38h1M93 38h1M96 38h1M99 38h1M102 38h1M105 38h1M108 38h1M2 39h1M5 39h1M8 39h1M11 39h1M14 39h1M17 39h1M20 39h1M23 39h1M26 39h1M29 39h1M32 39h1M35 39h1M38 39h1M41 39h1M44 39h1M47 39h4M53 39h1M56 39h1M59 39h1M62 39h4M68 39h1M71 39h1M74 39h1M77 39h1M80 39h1M83 39h1M86 39h1M89 39h4M95 39h1M98 39h1M101 39h1M104 39h1M107 39h1M110 39h1M1 40h1M4 40h1M7 40h1M10 40h1M13 40h1M16 40h1M19 40h1M22 40h1M25 40h1M28 40h1M31 40h1M34 40h1M37 40h1M40 40h1M43 40h1M46 40h1M48 40h1M50 40h1M52 40h1M55 40h1M58 40h1M61 40h1M63 40h1M65 40h1M67 40h1M70 40h1M73 40h1M76 40h1M79 40h1M82 40h1M85 40h1M88 40h1M90 40h1M92 40h1M94 40h1M97 40h1M100 40h1M103 40h1M106 40h1M109 40h1M0 41h1M3 41h1M6 41h1M9 41h1M12 41h1M15 41h1M18 41h1M21 41h1M24 41h1M27 41h1M30 41h1M33 41h1M36 41h1M39 41h1M42 41h1M45 41h1M48 41h4M54 41h1M57 41h1M60 41h1M63 41h4M69 41h1M72 41h1M75 41h1M78 41h1M81 41h1M84 41h1M87 41h1M90 41h4M96 41h1M99 41h1M102 41h1M105 41h1M108 41h1M2 42h1M5 42h1M8 42h1M11 42h1M14 42h4M20 42h1M23 42h1M26 42h1M29 42h1M32 42h1M35 42h1M38 42h1M41 42h1M44 42h1M47 42h1M50 42h1M53 42h1M56 42h4M62 42h1M65 42h1M68 42h1M71 42h1M74 42h1M77 42h1M80 42h1M83 42h1M86 42h1M89 42h1M92 42h1M95 42h1M98 42h1M101 42h1M104 42h1M107 42h1M110 42h1M1 43h1M4 43h1M7 43h1M10 43h1M13 43h1M15 43h1M17 43h1M19 43h1M22 43h1M25 43h1M28 43h1M31 43h1M34 43h1M37 43h1M40 43h1M43 43h1M46 43h1M49 43h1M52 43h1M55 43h1M57 43h1M59 43h1M61 43h1M64 43h1M67 43h1M70 43h1M73 43h1M76 43h1M79 43h1M82 43h1M85 43h1M88 43h1M91 43h1M94 43h1M97 43h1M100 43h1M103 43h1M106 43h1M109 43h1M0 44h1M3 44h1M6 44h1M9 44h1M12 44h1M15 44h4M21 44h1M24 44h1M27 44h1M30 44h1M33 44h1M36 44h1M39 44h1M42 44h1M45 44h1M48 44h1M51 44h1M54 44h1M57 44h4M63 44h1M66 44h1M69 44h1M72 44h1M75 44h1M78 44h1M81 44h1M84 44h1M87 44h1M90 44h1M93 44h1M96 44h1M99 44h1M102 44h1M105 44h1M108 44h1M2 45h1M5 45h1M8 45h1M11 45h1M14 45h1M17 45h1M20 45h1M23 45h1M26 45h1M29 45h1M32 45h1M35 45h1M38 45h1M41 45h1M44 45h4M50 45h1M53 45h1M56 45h1M59 45h1M62 45h1M65 45h1M68 45h1M71 45h1M74 45h3M78 45h3M83 45h1M86 45h1M89 45h1M92 45h1M95 45h1M98 45h1M101 45h1M104 45h1M107 45h1M110 45h1M1 46h1M4 46h1M7 46h1M10 46h1M13 46h1M16 46h1M19 46h1M22 46h1M25 46h1M28 46h1M31 46h1M34 46h1M37 46h1M40 46h1M43 46h1M45 46h1M47 46h1M49 46h1M52 46h1M55 46h1M58 46h1M61 46h1M64 46h1M67 46h1M70 46h1M73 46h1M75 46h1M77 46h2M80 46h1M82 46h1M85 46h1M88 46h1M91 46h1M94 46h1M97 46h1M100 46h1M103 46h1M106 46h1M109 46h1M0 47h1M3 47h1M6 47h1M9 47h1M12 47h1M15 47h1M18 47h1M21 47h1M24 47h1M27 47h1M30 47h1M33 47h1M36 47h1M39 47h1M42 47h1M45 47h4M51 47h1M54 47h1M57 47h1M60 47h1M63 47h1M66 47h1M69 47h1M72 47h1M76 47h6M84 47h1M87 47h1M90 47h1M93 47h1M96 47h1M99 47h1M102 47h1M105 47h1M108 47h1M2 48h1M5 48h1M8 48h1M11 48h1M14 48h1M17 48h1M20 48h1M23 48h1M26 48h1M29 48h1M32 48h1M35 48h1M38 48h1M41 48h1M44 48h1M47 48h1M50 48h1M53 48h1M56 48h1M59 48h6M68 48h1M71 48h1M74 48h3M80 48h1M83 48h1M86 48h4M92 48h1M95 48h1M98 48h1M101 48h4M107 48h1M110 48h1M1 49h1M4 49h1M7 49h1M10 49h1M13 49h1M16 49h1M19 49h1M22 49h1M25 49h1M28 49h1M31 49h1M34 49h1M37 49h1M40 49h1M43 49h1M46 49h1M49 49h1M52 49h1M55 49h1M58 49h1M60 49h1M62 49h2M65 49h1M67 49h1M70 49h1M73 49h1M75 49h1M77 49h1M79 49h1M82 49h1M85 49h1M87 49h1M89 49h1M91 49h1M94 49h1M97 49h1M100 49h1M102 49h1M104 49h1M106 49h1M109 49h1M0 50h1M3 50h1M6 50h1M9 50h1M12 50h1M15 50h1M18 50h1M21 50h1M24 50h1M27 50h1M30 50h1M33 50h1M36 50h1M39 50h1M42 50h1M45 50h1M48 50h1M51 50h1M54 50h1M57 50h1M60 50h3M64 50h3M69 50h1M72 50h1M76 50h3M81 50h1M84 50h1M87 50h4M93 50h1M96 50h1M99 50h1M102 50h4M108 50h1M0 51h3M5 51h1M8 51h1M11 51h1M14 51h1M17 51h1M20 51h1M23 51h1M26 51h1M29 51h1M32 51h1M35 51h1M38 51h1M41 51h4M47 51h1M50 51h1M53 51h1M56 51h1M59 51h1M62 51h3M68 51h1M71 51h1M74 51h3M78 51h2M83 51h1M86 51h1M89 51h3M95 51h1M98 51h1M101 51h1M104 51h4M110 51h1M0 52h1M2 52h1M4 52h1M7 52h1M10 52h1M13 52h1M16 52h1M19 52h1M22 52h1M25 52h1M28 52h1M31 52h1M34 52h1M37 52h1M40 52h1M42 52h1M44 52h1M46 52h1M49 52h1M52 52h1M55 52h1M58 52h1M61 52h1M63 52h1M65 52h1M67 52h1M70 52h1M73 52h1M75 52h1M77 52h2M80 52h1M82 52h1M85 52h1M88 52h1M90 52h1M92 52h1M94 52h1M97 52h1M100 52h1M103 52h1M105 52h1M107 52h1M109 52h1M0 53h4M6 53h1M9 53h1M12 53h1M15 53h1M18 53h1M21 53h1M24 53h1M27 53h1M30 53h1M33 53h1M36 53h1M39 53h1M42 53h4M48 53h1M51 53h1M54 53h1M57 53h1M60 53h1M64 53h3M69 53h1M72 53h1M76 53h2M79 53h3M84 53h1M87 53h1M91 53h3M96 53h1M99 53h1M102 53h1M105 53h4M2 54h1M5 54h1M8 54h1M11 54h1M14 54h3M20 54h1M23 54h1M26 54h1M29 54h1M32 54h4M38 54h1M41 54h1M44 54h1M47 54h3M53 54h1M56 54h3M62 54h3M68 54h1M71 54h1M74 54h3M78 54h2M83 54h4M89 54h3M93 54h3M98 54h1M101 54h1M104 54h1M107 54h1M110 54h1M1 55h1M4 55h1M7 55h1M10 55h1M13 55h1M15 55h1M17 55h1M19 55h1M22 55h1M25 55h1M28 55h1M31 55h1M33 55h1M35 55h1M37 55h1M40 55h1M43 55h1M46 55h1M48 55h1M50 55h1M52 55h1M55 55h1M57 55h1M59 55h1M61 55h1M63 55h1M65 55h1M67 55h1M70 55h1M73 55h1M75 55h1M77 55h2M80 55h1M82 55h1M84 55h1M86 55h1M88 55h1M90 55h1M92 55h2M95 55h1M97 55h1M100 55h1M103 55h1M106 55h1M109 55h1M0 56h1M3 56h1M6 56h1M9 56h1M12 56h1M16 56h3M21 56h1M24 56h1M27 56h1M30 56h1M33 56h4M39 56h1M42 56h1M45 56h1M49 56h3M54 56h1M58 56h3M64 56h3M69 56h1M72 56h1M76 56h2M79 56h3M84 56h4M91 56h6M99 56h1M102 56h1M105 56h1M108 56h1M2 57h1M5 57h1M8 57h1M11 57h1M14 57h3M20 57h1M23 57h1M26 57h1M29 57h1M32 57h1M35 57h1M38 57h1M41 57h1M44 57h1M47 57h3M53 57h1M56 57h3M60 57h2M63 57h2M68 57h1M71 57h1M74 57h3M78 57h2M83 57h1M86 57h1M89 57h3M95 57h1M98 57h1M101 57h3M107 57h1M110 57h1M1 58h1M4 58h1M7 58h1M10 58h1M13 58h1M15 58h1M17 58h1M19 58h1M22 58h1M25 58h1M28 58h1M31 58h1M34 58h1M37 58h1M40 58h1M43 58h1M46 58h1M48 58h1M50 58h1M52 58h1M55 58h1M57 58h1M59 58h2M62 58h2M65 58h1M67 58h1M70 58h1M73 58h1M75 58h1M77 58h2M80 58h1M82 58h1M85 58h1M88 58h1M90 58h1M92 58h1M94 58h1M97 58h1M100 58h1M102 58h1M104 58h1M106 58h1M109 58h1M0 59h1M3 59h1M6 59h1M9 59h1M12 59h1M16 59h3M21 59h1M24 59h1M27 59h1M30 59h1M33 59h1M36 59h1M39 59h1M42 59h1M45 59h1M49 59h3M54 59h1M58 59h2M61 59h2M64 59h3M69 59h1M72 59h1M76 59h2M79 59h3M84 59h1M87 59h1M91 59h3M96 59h1M99 59h1M103 59h3M108 59h1M2 60h1M5 60h4M11 60h1M14 60h3M20 60h4M26 60h1M29 60h1M32 60h1M35 60h1M38 60h6M45 60h2M48 60h2M53 60h6M60 60h2M63 60h2M68 60h1M71 60h1M74 60h3M78 60h2M83 60h1M86 60h3M90 60h2M95 60h1M98 60h6M105 60h2M110 60h1M1 61h1M4 61h1M6 61h1M8 61h1M10 61h1M13 61h1M15 61h1M17 61h1M19 61h1M21 61h1M23 61h1M25 61h1M28 61h1M31 61h1M34 61h1M37 61h1M39 61h1M41 61h2M44 61h2M47 61h2M50 61h1M52 61h1M54 61h1M56 61h2M59 61h2M62 61h2M65 61h1M67 61h1M70 61h1M73 61h1M75 61h1M77 61h2M80 61h1M82 61h1M85 61h1M87 61h1M89 61h2M92 61h1M94 61h1M97 61h1M99 61h1M101 61h2M104 61h2M107 61h1M109 61h1M0 62h1M3 62h1M6 62h4M12 62h1M16 62h3M21 62h4M27 62h1M30 62h1M33 62h1M36 62h1M39 62h3M43 62h2M46 62h2M49 62h3M54 62h3M58 62h2M61 62h2M64 62h3M69 62h1M72 62h1M76 62h2M79 62h3M84 62h1M88 62h2M91 62h3M96 62h1M99 62h3M103 62h2M106 62h3M2 63h1M5 63h1M8 63h1M11 63h1M14 63h3M20 63h1M23 63h1M26 63h1M29 63h1M32 63h1M35 63h1M38 63h1M41 63h3M45 63h2M48 63h2M53 63h1M56 63h3M60 63h2M63 63h2M68 63h1M71 63h1M73 63h1M75 63h2M78 63h2M83 63h1M86 63h3M90 63h2M93 63h2M98 63h1M101 63h3M105 63h2M110 63h1M1 64h1M4 64h1M7 64h1M10 64h1M13 64h1M15 64h1M17 64h1M19 64h1M22 64h1M25 64h1M28 64h1M31 64h1M34 64h1M37 64h1M40 64h1M42 64h1M44 64h2M47 64h2M50 64h1M52 64h1M55 64h1M57 64h1M59 64h2M62 64h2M65 64h1M67 64h1M70 64h1M73 64h1M75 64h1M77 64h2M80 64h1M82 64h1M85 64h1M87 64h1M89 64h2M92 64h2M95 64h1M97 64h1M100 64h1M102 64h1M104 64h2M107 64h1M109 64h1M0 65h1M3 65h1M6 65h1M9 65h1M12 65h1M16 65h3M21 65h1M24 65h1M27 65h1M30 65h1M33 65h1M36 65h1M39 65h1M43 65h2M46 65h2M49 65h3M54 65h1M58 65h2M61 65h2M64 65h3M69 65h1M73 65h1M76 65h2M79 65h3M84 65h1M88 65h2M91 65h2M94 65h3M99 65h1M103 65h2M106 65h3M2 66h1M5 66h1M8 66h1M11 66h1M14 66h3M20 66h1M23 66h1M26 66h1M29 66h1M32 66h1M35 66h4M41 66h3M45 66h2M48 66h2M53 66h1M56 66h3M60 66h2M63 66h2M68 66h1M71 66h1M73 66h1M75 66h2M78 66h2M83 66h1M86 66h3M90 66h2M93 66h2M98 66h1M101 66h3M105 66h2M110 66h1M1 67h1M4 67h1M7 67h1M10 67h1M13 67h1M15 67h1M17 67h1M19 67h1M22 67h1M25 67h1M28 67h1M31 67h1M34 67h1M36 67h1M38 67h1M40 67h1M42 67h1M44 67h2M47 67h2M50 67h1M52 67h1M55 67h1M57 67h1M59 67h2M62 67h2M65 67h1M67 67h1M70 67h1M73 67h1M75 67h1M77 67h2M80 67h1M82 67h1M85 67h1M87 67h1M89 67h2M92 67h2M95 67h1M97 67h1M100 67h1M102 67h1M104 67h2M107 67h1M109 67h1M0 68h1M3 68h1M6 68h1M9 68h1M12 68h1M16 68h3M21 68h1M24 68h1M27 68h1M30 68h1M33 68h1M36 68h4M43 68h2M46 68h2M49 68h3M54 68h1M58 68h2M61 68h2M64 68h3M69 68h1M73 68h1M76 68h2M79 68h3M84 68h1M88 68h2M91 68h2M94 68h3M99 68h1M103 68h2M106 68h3M0 69h2M5 69h3M11 69h6M18 69h3M23 69h1M26 69h1M29 69h1M32 69h1M35 69h1M38 69h1M41 69h3M45 69h2M48 69h2M56 69h3M60 69h2M63 69h2M68 69h1M71 69h1M73 69h1M75 69h2M78 69h2M83 69h3M87 69h2M90 69h2M93 69h2M98 69h1M101 69h3M105 69h2M110 69h1M0 70h1M2 70h1M4 70h1M6 70h1M8 70h1M10 70h1M12 70h1M14 70h2M17 70h2M20 70h1M22 70h1M25 70h1M28 70h1M31 70h1M34 70h1M37 70h1M40 70h1M42 70h1M44 70h2M47 70h2M50 70h1M52 70h1M55 70h1M57 70h1M59 70h2M62 70h2M65 70h1M67 70h1M70 70h1M73 70h1M75 70h1M77 70h2M80 70h1M82 70h1M84 70h1M86 70h2M89 70h2M92 70h2M95 70h1M97 70h1M100 70h1M102 70h1M104 70h2M107 70h1M109 70h1M1 71h3M7 71h3M12 71h3M16 71h6M24 71h1M27 71h1M30 71h1M33 71h1M36 71h1M39 71h1M43 71h2M46 71h2M49 71h2M54 71h1M58 71h2M61 71h2M64 71h3M69 71h1M73 71h1M76 71h2M79 71h3M85 71h2M88 71h2M91 71h2M94 71h3M99 71h1M103 71h2M106 71h3M0 72h2M3 72h5M11 72h1M14 72h3M20 72h3M24 72h6M32 72h1M35 72h1M38 72h1M41 72h3M45 72h2M48 72h2M51 72h2M54 72h2M57 72h2M60 72h2M63 72h2M68 72h1M71 72h1M73 72h1M75 72h2M78 72h2M83 72h3M87 72h2M90 72h2M93 72h2M96 72h5M102 72h2M105 72h2M110 72h1M0 73h1M2 73h2M5 73h2M8 73h1M10 73h1M13 73h1M15 73h1M17 73h1M19 73h1M21 73h1M23 73h2M26 73h2M29 73h1M31 73h1M34 73h1M37 73h1M40 73h1M42 73h1M44 73h2M47 73h2M50 73h2M53 73h2M56 73h2M59 73h2M62 73h2M65 73h1M67 73h1M70 73h1M73 73h1M75 73h1M77 73h2M80 73h1M82 73h1M84 73h1M86 73h2M89 73h2M92 73h2M95 73h2M98 73h2M101 73h2M104 73h2M107 73h1M109 73h1M1 74h5M7 74h3M12 74h1M16 74h3M22 74h9M33 74h1M36 74h1M39 74h1M43 74h2M46 74h2M49 74h2M52 74h2M55 74h2M58 74h2M61 74h2M64 74h3M69 74h1M73 74h1M76 74h2M79 74h3M85 74h2M88 74h2M91 74h2M94 74h5M100 74h2M103 74h2M106 74h3M0 75h2M5 75h3M11 75h3M15 75h2M18 75h2M21 75h2M26 75h1M29 75h1M32 75h1M35 75h1M38 75h1M41 75h3M45 75h2M48 75h2M53 75h3M57 75h2M60 75h2M63 75h2M66 75h3M71 75h1M73 75h1M75 75h2M78 75h2M83 75h3M87 75h2M90 75h2M93 75h2M98 75h3M102 75h2M105 75h2M110 75h1M0 76h1M2 76h1M4 76h1M6 76h1M8 76h1M10 76h1M12 76h1M14 76h2M17 76h2M20 76h2M23 76h1M25 76h1M28 76h1M31 76h1M34 76h1M37 76h1M40 76h1M42 76h1M44 76h2M47 76h2M50 76h1M52 76h1M54 76h1M56 76h2M59 76h2M62 76h2M65 76h2M68 76h1M70 76h1M73 76h1M75 76h1M77 76h2M80 76h1M82 76h1M84 76h1M86 76h2M89 76h2M92 76h2M95 76h1M97 76h1M99 76h1M101 76h2M104 76h2M107 76h1M109 76h1M1 77h3M7 77h3M13 77h2M16 77h2M19 77h2M22 77h3M27 77h1M30 77h1M33 77h1M36 77h1M39 77h1M43 77h2M46 77h2M49 77h3M55 77h2M58 77h2M61 77h2M64 77h6M73 77h1M76 77h2M79 77h3M85 77h2M88 77h2M91 77h2M94 77h3M100 77h2M103 77h2M106 77h3M0 78h2M3 78h2M6 78h2M11 78h3M15 78h2M18 78h2M21 78h2M26 78h1M29 78h6M36 78h2M39 78h2M42 78h2M45 78h2M48 78h2M53 78h3M57 78h2M60 78h2M63 78h2M68 78h4M73 78h1M75 78h2M78 78h2M83 78h3M87 78h2M90 78h2M93 78h2M96 78h2M99 78h2M102 78h2M105 78h2M110 78h1M0 79h1M2 79h2M5 79h2M8 79h1M10 79h1M12 79h1M14 79h2M17 79h2M20 79h2M23 79h1M25 79h1M28 79h1M30 79h1M32 79h2M35 79h2M38 79h2M41 79h2M44 79h2M47 79h2M50 79h1M52 79h1M54 79h1M56 79h2M59 79h2M62 79h2M65 79h1M67 79h1M69 79h1M71 79h1M73 79h1M75 79h1M77 79h2M80 79h1M82 79h1M84 79h1M86 79h2M89 79h2M92 79h2M95 79h2M98 79h2M101 79h2M104 79h2M107 79h1M109 79h1M1 80h2M4 80h2M7 80h3M13 80h2M16 80h2M19 80h2M22 80h3M27 80h1M30 80h3M34 80h2M37 80h2M40 80h2M43 80h2M46 80h2M49 80h3M55 80h2M58 80h2M61 80h2M64 80h3M69 80h3M73 80h1M76 80h2M79 80h3M85 80h2M88 80h2M91 80h2M94 80h2M97 80h2M100 80h2M103 80h2M106 80h3M0 81h2M3 81h2M6 81h2M11 81h3M15 81h2M18 81h2M21 81h2M26 81h1M29 81h1M32 81h3M36 81h2M39 81h2M42 81h2M45 81h2M49 81h1M53 81h3M57 81h2M60 81h2M63 81h2M66 81h2M71 81h1M73 81h1M76 81h1M78 81h2M83 81h3M88 81h1M90 81h2M93 81h2M96 81h2M99 81h2M102 81h2M105 81h2M110 81h1M0 82h1M2 82h2M5 82h2M8 82h1M10 82h1M12 82h1M14 82h2M17 82h2M20 82h2M23 82h1M25 82h1M28 82h1M31 82h1M33 82h1M35 82h2M38 82h2M41 82h2M44 82h2M47 82h1M49 82h1M52 82h1M54 82h1M56 82h2M59 82h2M62 82h2M65 82h2M68 82h1M70 82h1M73 82h1M76 82h1M78 82h1M80 82h1M82 82h1M84 82h1M86 82h1M88 82h1M90 82h1M92 82h2M95 82h2M98 82h2M101 82h2M104 82h2M107 82h1M109 82h1M1 83h2M4 83h2M7 83h3M13 83h2M16 83h2M19 83h2M22 83h3M27 83h1M30 83h1M34 83h2M37 83h2M40 83h2M43 83h2M46 83h2M49 83h1M51 83h1M55 83h2M58 83h2M61 83h2M64 83h2M67 83h3M73 83h1M76 83h1M79 83h3M85 83h2M88 83h1M91 83h2M94 83h2M97 83h2M100 83h2M103 83h2M106 83h3M0 84h2M3 84h2M6 84h2M11 84h3M15 84h2M18 84h2M21 84h2M24 84h2M29 84h3M33 84h2M36 84h2M39 84h2M42 84h2M45 84h2M49 84h1M53 84h3M57 84h2M60 84h2M63 84h2M66 84h2M69 84h2M73 84h1M76 84h1M78 84h2M83 84h3M88 84h1M90 84h2M93 84h2M96 84h2M99 84h2M102 84h2M105 84h2M110 84h1M0 85h1M2 85h2M5 85h2M8 85h1M10 85h1M12 85h1M14 85h2M17 85h2M20 85h2M23 85h2M26 85h1M28 85h1M30 85h1M32 85h2M35 85h2M38 85h2M41 85h2M44 85h2M47 85h1M49 85h1M52 85h1M54 85h1M56 85h2M59 85h2M62 85h2M65 85h2M68 85h2M71 85h1M73 85h1M76 85h1M78 85h1M80 85h1M82 85h1M84 85h1M86 85h1M88 85h1M90 85h1M92 85h2M95 85h2M98 85h2M101 85h2M104 85h2M107 85h1M109 85h1M1 86h2M4 86h2M7 86h3M13 86h2M16 86h2M19 86h2M22 86h2M25 86h3M31 86h2M34 86h2M37 86h2M40 86h2M43 86h2M46 86h2M49 86h1M51 86h1M55 86h2M58 86h2M61 86h2M64 86h2M67 86h2M70 86h2M73 86h1M76 86h1M79 86h3M85 86h2M88 86h1M91 86h2M94 86h2M97 86h2M100 86h2M103 86h2M106 86h3M0 87h2M3 87h2M6 87h2M11 87h3M16 87h1M18 87h2M21 87h2M24 87h2M27 87h2M30 87h2M33 87h2M36 87h2M39 87h2M42 87h2M46 87h1M49 87h1M53 87h3M57 87h2M60 87h2M63 87h2M66 87h2M69 87h2M73 87h1M76 87h1M79 87h1M83 87h3M88 87h1M90 87h2M93 87h2M96 87h2M99 87h2M102 87h2M106 87h1M110 87h1M0 88h1M2 88h2M5 88h2M8 88h1M10 88h1M12 88h1M14 88h1M16 88h1M18 88h1M20 88h2M23 88h2M26 88h2M29 88h2M32 88h2M35 88h2M38 88h2M41 88h2M44 88h1M46 88h1M49 88h1M52 88h1M54 88h1M56 88h2M59 88h2M62 88h2M65 88h2M68 88h2M71 88h1M73 88h1M76 88h1M79 88h1M82 88h1M84 88h1M86 88h1M88 88h1M90 88h1M92 88h2M95 88h2M98 88h2M101 88h2M104 88h1M106 88h1M109 88h1M1 89h2M4 89h2M7 89h3M13 89h2M16 89h1M19 89h2M22 89h2M25 89h2M28 89h2M31 89h2M34 89h2M37 89h2M40 89h2M43 89h2M46 89h1M49 89h1M51 89h1M55 89h2M58 89h2M61 89h2M64 89h2M67 89h2M70 89h2M73 89h1M76 89h1M79 89h1M81 89h1M85 89h2M88 89h1M91 89h2M94 89h2M97 89h2M100 89h2M103 89h2M106 89h1M108 89h1M0 90h2M3 90h2M6 90h2M11 90h3M16 90h1M18 90h2M21 90h2M24 90h2M27 90h2M30 90h2M33 90h2M36 90h2M39 90h2M42 90h2M46 90h1M49 90h1M53 90h3M57 90h2M60 90h2M64 90h1M66 90h2M69 90h2M73 90h1M76 90h1M79 90h1M83 90h3M88 90h1M90 90h2M93 90h2M96 90h2M99 90h2M103 90h1M106 90h1M108 90h3M0 91h1M2 91h2M5 91h2M8 91h1M10 91h1M12 91h1M14 91h1M16 91h1M18 91h1M20 91h2M23 91h2M26 91h2M29 91h2M32 91h2M35 91h2M38 91h2M41 91h2M44 91h1M46 91h1M49 91h1M52 91h1M54 91h1M56 91h2M59 91h2M62 91h1M64 91h1M66 91h1M68 91h2M71 91h1M73 91h1M76 91h1M79 91h1M82 91h1M84 91h1M86 91h1M88 91h1M90 91h1M92 91h2M95 91h2M98 91h2M101 91h1M103 91h1M106 91h1M108 91h1M110 91h1M1 92h2M4 92h2M7 92h3M13 92h2M16 92h1M19 92h2M22 92h2M25 92h2M28 92h2M31 92h2M34 92h2M37 92h2M40 92h2M43 92h2M46 92h1M49 92h1M51 92h1M55 92h2M58 92h2M61 92h2M64 92h1M67 92h2M70 92h2M73 92h1M76 92h1M79 92h1M81 92h1M85 92h2M88 92h1M91 92h2M94 92h2M97 92h2M100 92h2M103 92h1M106 92h1M108 92h3M1 93h1M3 93h2M6 93h2M9 93h5M16 93h1M18 93h2M21 93h2M24 93h2M27 93h2M30 93h2M33 93h2M36 93h2M39 93h2M42 93h2M46 93h1M49 93h1M53 93h3M58 93h1M60 93h2M64 93h1M66 93h2M69 93h2M73 93h1M76 93h1M79 93h1M83 93h3M88 93h1M91 93h1M93 93h2M96 93h2M99 93h2M103 93h1M106 93h1M110 93h1M1 94h1M3 94h1M5 94h2M8 94h2M11 94h2M14 94h1M16 94h1M18 94h1M20 94h2M23 94h2M26 94h2M29 94h2M32 94h2M35 94h2M38 94h2M41 94h2M44 94h1M46 94h1M49 94h1M52 94h1M54 94h1M56 94h1M58 94h1M60 94h1M62 94h1M64 94h1M66 94h1M68 94h2M71 94h1M73 94h1M76 94h1M79 94h1M82 94h1M84 94h1M86 94h1M88 94h1M91 94h1M93 94h1M95 94h2M98 94h2M101 94h1M103 94h1M106 94h1M109 94h1M1 95h1M4 95h2M7 95h5M13 95h2M16 95h1M19 95h2M22 95h2M25 95h2M28 95h2M31 95h2M34 95h2M37 95h2M40 95h2M43 95h2M46 95h1M49 95h1M51 95h1M55 95h2M58 95h1M61 95h2M64 95h1M67 95h2M70 95h2M73 95h1M76 95h1M79 95h1M81 95h1M85 95h2M88 95h1M91 95h1M94 95h2M97 95h2M100 95h2M103 95h1M106 95h1M108 95h1M1 96h1M3 96h2M6 96h2M11 96h3M16 96h1M18 96h2M21 96h2M24 96h2M27 96h2M30 96h2M34 96h1M36 96h2M39 96h2M43 96h1M46 96h1M49 96h1M53 96h3M58 96h1M61 96h1M64 96h1M66 96h2M69 96h2M73 96h1M76 96h1M79 96h1M81 96h5M88 96h1M91 96h1M93 96h2M96 96h2M99 96h2M103 96h1M106 96h1M110 96h1M1 97h1M3 97h1M5 97h2M8 97h1M10 97h1M12 97h1M14 97h1M16 97h1M18 97h1M20 97h2M23 97h2M26 97h2M29 97h2M32 97h1M34 97h1M36 97h1M38 97h2M41 97h1M43 97h1M46 97h1M49 97h1M52 97h1M54 97h1M56 97h1M58 97h1M61 97h1M64 97h1M66 97h1M68 97h2M71 97h1M73 97h1M76 97h1M79 97h1M81 97h1M83 97h2M86 97h1M88 97h1M91 97h1M93 97h1M95 97h2M98 97h2M101 97h1M103 97h1M106 97h1M109 97h1M1 98h1M4 98h2M7 98h3M13 98h2M16 98h1M19 98h2M22 98h2M25 98h2M28 98h2M31 98h2M34 98h1M37 98h2M40 98h2M43 98h1M46 98h1M49 98h1M51 98h1M55 98h2M58 98h1M61 98h1M64 98h1M67 98h2M70 98h2M73 98h1M76 98h1M79 98h1M81 98h3M85 98h2M88 98h1M91 98h1M94 98h2M97 98h2M100 98h2M103 98h1M106 98h1M108 98h1M1 99h1M3 99h2M6 99h2M11 99h3M16 99h1M18 99h2M21 99h2M24 99h2M27 99h2M30 99h2M34 99h1M36 99h2M39 99h2M43 99h1M46 99h1M49 99h1M53 99h3M58 99h1M61 99h1M64 99h1M66 99h2M69 99h2M73 99h1M76 99h1M79 99h1M83 99h1M85 99h1M88 99h1M91 99h1M94 99h1M96 99h2M99 99h2M103 99h1M106 99h1M108 99h2M1 100h1M3 100h1M5 100h2M8 100h1M10 100h1M12 100h1M14 100h1M16 100h1M18 100h1M20 100h2M23 100h2M26 100h2M29 100h2M32 100h1M34 100h1M36 100h1M38 100h2M41 100h1M43 100h1M46 100h1M49 100h1M52 100h1M54 100h1M56 100h1M58 100h1M61 100h1M64 100h1M66 100h1M68 100h2M71 100h1M73 100h1M76 100h1M79 100h1M82 100h1M85 100h1M88 100h1M91 100h1M94 100h1M96 100h1M98 100h2M101 100h1M103 100h1M106 100h1M108 100h1M110 100h1M1 101h1M4 101h2M7 101h3M13 101h2M16 101h1M19 101h2M22 101h2M25 101h2M28 101h2M31 101h2M34 101h1M37 101h2M40 101h2M43 101h1M46 101h1M49 101h1M51 101h1M55 101h2M58 101h1M61 101h1M64 101h1M67 101h2M70 101h2M73 101h1M76 101h1M79 101h1M81 101h1M85 101h1M88 101h1M91 101h1M94 101h1M97 101h2M100 101h2M103 101h1M106 101h1M109 101h2M1 102h1M3 102h2M7 102h1M11 102h3M16 102h1M18 102h2M22 102h1M24 102h2M27 102h2M30 102h2M34 102h1M36 102h2M40 102h1M43 102h1M46 102h1M49 102h1M53 102h3M58 102h1M61 102h1M64 102h1M66 102h2M69 102h2M73 102h1M76 102h1M79 102h1M83 102h1M85 102h1M88 102h1M91 102h1M94 102h1M96 102h2M99 102h2M103 102h1M106 102h1M108 102h2M1 103h1M3 103h1M5 103h1M7 103h1M10 103h1M12 103h1M14 103h1M16 103h1M18 103h1M20 103h1M22 103h1M24 103h1M26 103h2M29 103h2M32 103h1M34 103h1M36 103h1M38 103h1M40 103h1M43 103h1M46 103h1M49 103h1M52 103h1M54 103h1M56 103h1M58 103h1M61 103h1M64 103h1M66 103h1M68 103h2M71 103h1M73 103h1M76 103h1M79 103h1M82 103h1M85 103h1M88 103h1M91 103h1M94 103h1M96 103h1M98 103h2M101 103h1M103 103h1M106 103h1M108 103h1M110 103h1M1 104h1M4 104h2M7 104h1M9 104h1M13 104h2M16 104h1M19 104h2M22 104h1M25 104h2M28 104h2M31 104h2M34 104h1M37 104h2M40 104h1M43 104h1M46 104h1M49 104h1M51 104h1M55 104h2M58 104h1M61 104h1M64 104h1M67 104h2M70 104h2M73 104h1M76 104h1M79 104h1M81 104h1M85 104h1M88 104h1M91 104h1M94 104h1M97 104h2M100 104h2M103 104h1M106 104h1M109 104h2M1 105h1M3 105h2M7 105h1M11 105h3M16 105h1M18 105h2M22 105h1M24 105h2M27 105h2M30 105h2M34 105h1M36 105h2M40 105h1M43 105h1M46 105h1M49 105h1M53 105h1M55 105h1M58 105h1M61 105h1M64 105h1M66 105h2M69 105h2M73 105h1M76 105h1M79 105h1M83 105h1M85 105h1M88 105h1M91 105h1M94 105h1M96 105h2M100 105h1M103 105h1M106 105h1M108 105h2M1 106h1M3 106h1M5 106h1M7 106h1M10 106h1M12 106h1M14 106h1M16 106h1M18 106h1M20 106h1M22 106h1M24 106h1M26 106h2M29 106h2M32 106h1M34 106h1M36 106h1M38 106h1M40 106h1M43 106h1M46 106h1M49 106h1M52 106h1M55 106h1M58 106h1M61 106h1M64 106h1M66 106h1M68 106h2M71 106h1M73 106h1M76 106h1M79 106h1M82 106h1M85 106h1M88 106h1M91 106h1M94 106h1M96 106h1M98 106h1M100 106h1M103 106h1M106 106h1M108 106h1M110 106h1M1 107h1M4 107h2M7 107h1M9 107h1M13 107h2M16 107h1M19 107h2M22 107h1M25 107h2M28 107h2M31 107h2M34 107h1M37 107h2M40 107h1M43 107h1M46 107h1M49 107h1M51 107h1M55 107h1M58 107h1M61 107h1M64 107h1M67 107h2M70 107h2M73 107h1M76 107h1M79 107h1M81 107h1M85 107h1M88 107h1M91 107h1M94 107h1M97 107h2M100 107h1M103 107h1M106 107h1M109 107h2M1 108h1M3 108h2M7 108h1M9 108h2M12 108h2M16 108h1M18 108h2M22 108h1M25 108h1M27 108h2M30 108h2M34 108h1M37 108h1M40 108h1M43 108h1M46 108h1M49 108h1M52 108h1M55 108h1M58 108h1M61 108h1M64 108h1M66 108h2M69 108h2M73 108h1M76 108h1M79 108h1M81 108h2M85 108h1M88 108h1M91 108h1M94 108h1M96 108h2M100 108h1M103 108h1M106 108h1M108 108h2M1 109h1M3 109h1M5 109h1M7 109h1M9 109h1M11 109h2M14 109h1M16 109h1M18 109h1M20 109h1M22 109h1M25 109h1M27 109h1M29 109h2M32 109h1M34 109h1M37 109h1M40 109h1M43 109h1M46 109h1M49 109h1M52 109h1M55 109h1M58 109h1M61 109h1M64 109h1M66 109h1M68 109h2M71 109h1M73 109h1M76 109h1M79 109h1M81 109h1M83 109h1M85 109h1M88 109h1M91 109h1M94 109h1M96 109h1M98 109h1M100 109h1M103 109h1M106 109h1M108 109h1M110 109h1M1 110h1M4 110h2M7 110h1M10 110h2M13 110h2M16 110h1M19 110h2M22 110h1M25 110h1M28 110h2M31 110h2M34 110h1M37 110h1M40 110h1M43 110h1M46 110h1M49 110h1M52 110h1M55 110h1M58 110h1M61 110h1M64 110h1M67 110h2M70 110h2M73 110h1M76 110h1M79 110h1M82 110h2M85 110h1M88 110h1M91 110h1M94 110h1M97 110h2M100 110h1M103 110h1M106 110h1M109 110h2M1 111h1M3 111h2M7 111h1M9 111h2M12 111h2M16 111h1M18 111h2M22 111h1M25 111h1M27 111h2M30 111h2M34 111h1M37 111h1M40 111h1M43 111h1M46 111h1M49 111h1M52 111h1M55 111h1M58 111h1M61 111h1M64 111h1M66 111h2M69 111h2M73 111h1M76 111h1M79 111h1M81 111h2M85 111h1M88 111h1M91 111h1M94 111h1M96 111h2M100 111h1M103 111h1M106 111h1M108 111h2M1 112h1M3 112h1M5 112h1M7 112h1M9 112h1M11 112h2M14 112h1M16 112h1M18 112h1M20 112h1M22 112h1M25 112h1M27 112h1M29 112h2M32 112h1M34 112h1M37 112h1M40 112h1M43 112h1M46 112h1M49 112h1M52 112h1M55 112h1M58 112h1M61 112h1M64 112h1M66 112h1M68 112h2M71 112h1M73 112h1M76 112h1M79 112h1M81 112h1M83 112h1M85 112h1M88 112h1M91 112h1M94 112h1M96 112h1M98 112h1M100 112h1M103 112h1M106 112h1M108 112h1M110 112h1M1 113h1M4 113h2M7 113h1M10 113h2M13 113h2M16 113h1M19 113h2M22 113h1M25 113h1M28 113h2M31 113h2M34 113h1M37 113h1M40 113h1M43 113h1M46 113h1M49 113h1M52 113h1M55 113h1M58 113h1M61 113h1M64 113h1M67 113h2M70 113h2M73 113h1M76 113h1M79 113h1M82 113h2M85 113h1M88 113h1M91 113h1M94 113h1M97 113h2M100 113h1M103 113h1M106 113h1M109 113h2M1 114h1M4 114h1M7 114h1M9 114h2M13 114h1M16 114h1M19 114h1M22 114h1M25 114h1M28 114h1M30 114h2M34 114h1M37 114h1M40 114h1M43 114h1M46 114h1M49 114h1M52 114h1M55 114h1M58 114h1M61 114h1M64 114h1M66 114h2M69 114h2M73 114h1M76 114h1M79 114h1M81 114h2M85 114h1M88 114h1M91 114h1M94 114h1M97 114h1M100 114h1M103 114h1M106 114h1M108 114h2M1 115h1M4 115h1M7 115h1M9 115h1M11 115h1M13 115h1M16 115h1M19 115h1M22 115h1M25 115h1M28 115h1M30 115h1M32 115h1M34 115h1M37 115h1M40 115h1M43 115h1M46 115h1M49 115h1M52 115h1M55 115h1M58 115h1M61 115h1M64 115h1M66 115h1M68 115h2M71 115h1M73 115h1M76 115h1M79 115h1M81 115h1M83 115h1M85 115h1M88 115h1M91 115h1M94 115h1M97 115h1M100 115h1M103 115h1M106 115h1M108 115h1M110 115h1M1 116h1M4 116h1M7 116h1M10 116h2M13 116h1M16 116h1M19 116h1M22 116h1M25 116h1M28 116h1M31 116h2M34 116h1M37 116h1M40 116h1M43 116h1M46 116h1M49 116h1M52 116h1M55 116h1M58 116h1M61 116h1M64 116h1M67 116h2M70 116h2M73 116h1M76 116h1M79 116h1M82 116h2M85 116h1M88 116h1M91 116h1M94 116h1M97 116h1M100 116h1M103 116h1M106 116h1M109 116h2M1 117h1M4 117h1M7 117h1M9 117h2M13 117h1M16 117h1M19 117h1M22 117h1M25 117h1M28 117h1M31 117h1M34 117h1M37 117h1M40 117h1M43 117h1M46 117h1M49 117h1M52 117h1M55 117h1M58 117h1M61 117h1M64 117h1M66 117h2M69 117h2M73 117h1M76 117h1M79 117h1M81 117h2M85 117h1M88 117h1M91 117h1M94 117h1M97 117h1M100 117h1M103 117h1M106 117h1M108 117h2M1 118h1M4 118h1M7 118h1M9 118h1M11 118h1M13 118h1M16 118h1M19 118h1M22 118h1M25 118h1M28 118h1M31 118h1M34 118h1M37 118h1M40 118h1M43 118h1M46 118h1M49 118h1M52 118h1M55 118h1M58 118h1M61 118h1M64 118h1M66 118h1M68 118h2M71 118h1M73 118h1M76 118h1M79 118h1M81 118h1M83 118h1M85 118h1M88 118h1M91 118h1M94 118h1M97 118h1M100 118h1M103 118h1M106 118h1M108 118h1M110 118h1M1 119h1M4 119h1M7 119h1M10 119h2M13 119h1M16 119h1M19 119h1M22 119h1M25 119h1M28 119h1M31 119h1M34 119h1M37 119h1M40 119h1M43 119h1M46 119h1M49 119h1M52 119h1M55 119h1M58 119h1M61 119h1M64 119h1M67 119h2M70 119h2M73 119h1M76 119h1M79 119h1M82 119h2M85 119h1M88 119h1M91 119h1M94 119h1M97 119h1M100 119h1M103 119h1M106 119h1M109 119h2M1 120h1M4 120h1M7 120h1M9 120h2M13 120h1M16 120h1M19 120h1M22 120h1M25 120h1M28 120h1M31 120h1M34 120h1M37 120h1M40 120h1M43 120h1M46 120h1M49 120h1M52 120h1M55 120h1M58 120h1M61 120h1M64 120h1M67 120h1M69 120h2M73 120h1M76 120h1M79 120h1M81 120h2M85 120h1M88 120h1M91 120h1M94 120h1M97 120h1M100 120h1M103 120h1M106 120h1M108 120h2M1 121h1M4 121h1M7 121h1M9 121h1M11 121h1M13 121h1M16 121h1M19 121h1M22 121h1M25 121h1M28 121h1M31 121h1M34 121h1M37 121h1M40 121h1M43 121h1M46 121h1M49 121h1M52 121h1M55 121h1M58 121h1M61 121h1M64 121h1M67 121h1M69 121h1M71 121h1M73 121h1M76 121h1M79 121h1M81 121h1M83 121h1M85 121h1M88 121h1M91 121h1M94 121h1M97 121h1M100 121h1M103 121h1M106 121h1M108 121h1M110 121h1M1 122h1M4 122h1M7 122h1M10 122h2M13 122h1M16 122h1M19 122h1M22 122h1M25 122h1M28 122h1M31 122h1M34 122h1M37 122h1M40 122h1M43 122h1M46 122h1M49 122h1M52 122h1M55 122h1M58 122h1M61 122h1M64 122h1M67 122h1M70 122h2M73 122h1M76 122h1M79 122h1M82 122h2M85 122h1M88 122h1M91 122h1M94 122h1M97 122h1M100 122h1M103 122h1M106 122h1M109 122h2M1 123h1M4 123h1M7 123h1M9 123h2M13 123h1M16 123h1M19 123h1M22 123h1M25 123h1M28 123h1M31 123h1M34 123h1M37 123h1M40 123h1M43 123h1M46 123h1M49 123h1M52 123h1M55 123h1M58 123h1M61 123h1M64 123h1M67 123h1M69 123h2M73 123h1M76 123h1M79 123h1M81 123h2M85 123h1M88 123h1M91 123h1M94 123h1M97 123h1M100 123h1M103 123h1M106 123h1M108 123h2M1 124h1M4 124h1M7 124h1M9 124h1M11 124h1M13 124h1M16 124h1M19 124h1M22 124h1M25 124h1M28 124h1M31 124h1M34 124h1M37 124h1M40 124h1M43 124h1M46 124h1M49 124h1M52 124h1M55 124h1M58 124h1M61 124h1M64 124h1M67 124h1M69 124h1M71 124h1M73 124h1M76 124h1M79 124h1M81 124h1M83 124h1M85 124h1M88 124h1M91 124h1M94 124h1M97 124h1M100 124h1M103 124h1M106 124h1M108 124h1M110 124h1M1 125h1M4 125h1M7 125h1M10 125h2M13 125h1M16 125h1M19 125h1M22 125h1M25 125h1M28 125h1M31 125h1M34 125h1M37 125h1M40 125h1M43 125h1M46 125h1M49 125h1M52 125h1M55 125h1M58 125h1M61 125h1M64 125h1M67 125h1M70 125h2M73 125h1M76 125h1M79 125h1M82 125h2M85 125h1M88 125h1M91 125h1M94 125h1M97 125h1M100 125h1M103 125h1M106 125h1M109 125h2M1 126h1M4 126h1M7 126h1M9 126h2M13 126h1M16 126h1M19 126h1M22 126h1M25 126h1M28 126h1M31 126h1M34 126h1M37 126h1M40 126h1M43 126h1M46 126h1M49 126h1M52 126h1M55 126h1M58 126h1M61 126h1M64 126h1M67 126h1M69 126h2M73 126h1M76 126h1M79 126h1M81 126h2M85 126h1M88 126h1M91 126h1M94 126h1M97 126h1M100 126h1M103 126h1M106 126h1M108 126h2M1 127h1M4 127h1M7 127h1M9 127h1M11 127h1M13 127h1M16 127h1M19 127h1M22 127h1M25 127h1M28 127h1M31 127h1M34 127h1M37 127h1M40 127h1M43 127h1M46 127h1M49 127h1M52 127h1M55 127h1M58 127h1M61 127h1M64 127h1M67 127h1M69 127h1M71 127h1M73 127h1M76 127h1M79 127h1M81 127h1M83 127h1M85 127h1M88 127h1M91 127h1M94 127h1M97 127h1M100 127h1M103 127h1M106 127h1M108 127h1M110 127h1M1 128h1M4 128h1M7 128h1M10 128h2M13 128h1M16 128h1M19 128h1M22 128h1M25 128h1M28 128h1M31 128h1M34 128h1M37 128h1M40 128h1M43 128h1M46 128h1M49 128h1M52 128h1M55 128h1M58 128h1M61 128h1M64 128h1M67 128h1M70 128h2M73 128h1M76 128h1M79 128h1M82 128h2M85 128h1M88 128h1M91 128h1M94 128h1M97 128h1M100 128h1M103 128h1M106 128h1M109 128h2M1 129h1M4 129h1M7 129h1M9 129h2M13 129h1M16 129h1M19 129h1M22 129h1M25 129h1M28 129h1M31 129h1M34 129h1M37 129h1M40 129h1M43 129h1M46 129h1M49 129h1M52 129h1M55 129h1M58 129h1M61 129h1M64 129h1M67 129h1M69 129h2M73 129h1M76 129h1M79 129h1M81 129h2M85 129h1M88 129h1M91 129h1M94 129h1M97 129h1M100 129h1M103 129h1M106 129h1M108 129h2M1 130h1M4 130h1M7 130h1M9 130h1M11 130h1M13 130h1M16 130h1M19 130h1M22 130h1M25 130h1M28 130h1M31 130h1M34 130h1M37 130h1M40 130h1M43 130h1M46 130h1M49 130h1M52 130h1M55 130h1M58 130h1M61 130h1M64 130h1M67 130h1M69 130h1M71 130h1M73 130h1M76 130h1M79 130h1M81 130h1M83 130h1M85 130h1M88 130h1M91 130h1M94 130h1M97 130h1M100 130h1M103 130h1M106 130h1M108 130h1M110 130h1M1 131h1M4 131h1M7 131h1M10 131h2M13 131h1M16 131h1M19 131h1M22 131h1M25 131h1M28 131h1M31 131h1M34 131h1M37 131h1M40 131h1M43 131h1M46 131h1M49 131h1M52 131h1M55 131h1M58 131h1M61 131h1M64 131h1M67 131h1M70 131h2M73 131h1M76 131h1M79 131h1M82 131h2M85 131h1M88 131h1M91 131h1M94 131h1M97 131h1M100 131h1M103 131h1M106 131h1M109 131h2M1 132h1M4 132h1M7 132h1M10 132h1M13 132h1M16 132h1M19 132h1M22 132h1M25 132h1M28 132h1M31 132h1M34 132h1M37 132h1M40 132h1M43 132h1M46 132h1M49 132h1M52 132h1M55 132h1M58 132h1M61 132h1M64 132h1M67 132h1M70 132h1M73 132h1M76 132h1M79 132h1M81 132h2M85 132h1M88 132h1M91 132h1M94 132h1M97 132h1M100 132h1M103 132h1M106 132h1M108 132h2M1 133h1M4 133h1M7 133h1M10 133h1M13 133h1M16 133h1M19 133h1M22 133h1M25 133h1M28 133h1M31 133h1M34 133h1M37 133h1M40 133h1M43 133h1M46 133h1M49 133h1M52 133h1M55 133h1M58 133h1M61 133h1M64 133h1M67 133h1M70 133h1M73 133h1M76 133h1M79 133h1M81 133h1M83 133h1M85 133h1M88 133h1M91 133h1M94 133h1M97 133h1M100 133h1M103 133h1M106 133h1M108 133h1M110 133h1M1 134h1M4 134h1M7 134h1M10 134h1M13 134h1M16 134h1M19 134h1M22 134h1M25 134h1M28 134h1M31 134h1M34 134h1M37 134h1M40 134h1M43 134h1M46 134h1M49 134h1M52 134h1M55 134h1M58 134h1M61 134h1M64 134h1M67 134h1M70 134h1M73 134h1M76 134h1M79 134h1M82 134h2M85 134h1M88 134h1M91 134h1M94 134h1M97 134h1M100 134h1M103 134h1M106 134h1M109 134h2M1 135h1M4 135h1M7 135h1M10 135h1M13 135h1M16 135h1M19 135h1M22 135h1M25 135h1M28 135h1M31 135h1M34 135h1M37 135h1M40 135h1M43 135h1M46 135h1M49 135h1M52 135h1M55 135h1M58 135h1M61 135h1M64 135h1M67 135h1M70 135h1M73 135h1M76 135h1M79 135h1M81 135h2M85 135h1M88 135h1M91 135h1M94 135h1M97 135h1M100 135h1M103 135h1M106 135h1M108 135h2M1 136h1M4 136h1M7 136h1M10 136h1M13 136h1M16 136h1M19 136h1M22 136h1M25 136h1M28 136h1M31 136h1M34 136h1M37 136h1M40 136h1M43 136h1M46 136h1M49 136h1M52 136h1M55 136h1M58 136h1M61 136h1M64 136h1M67 136h1M70 136h1M73 136h1M76 136h1M79 136h1M81 136h1M83 136h1M85 136h1M88 136h1M91 136h1M94 136h1M97 136h1M100 136h1M103 136h1M106 136h1M108 136h1M110 136h1M1 137h1M4 137h1M7 137h1M10 137h1M13 137h1M16 137h1M19 137h1M22 137h1M25 137h1M28 137h1M31 137h1M34 137h1M37 137h1M40 137h1M43 137h1M46 137h1M49 137h1M52 137h1M55 137h1M58 137h1M61 137h1M64 137h1M67 137h1M70 137h1M73 137h1M76 137h1M79 137h1M82 137h2M85 137h1M88 137h1M91 137h1M94 137h1M97 137h1M100 137h1M103 137h1M106 137h1M109 137h2M1 138h1M4 138h1M7 138h1M10 138h1M13 138h1M16 138h1M19 138h1M22 138h1M25 138h1M28 138h1M31 138h1M34 138h1M37 138h1M40 138h1M43 138h1M46 138h1M49 138h1M52 138h1M55 138h1M58 138h1M61 138h1M64 138h1M67 138h1M70 138h1M73 138h1M76 138h1M79 138h1M82 138h1M85 138h1M88 138h1M91 138h1M94 138h1M97 138h1M100 138h1M103 138h1M106 138h1M108 138h2M1 139h1M4 139h1M7 139h1M10 139h1M13 139h1M16 139h1M19 139h1M22 139h1M25 139h1M28 139h1M31 139h1M34 139h1M37 139h1M40 139h1M43 139h1M46 139h1M49 139h1M52 139h1M55 139h1M58 139h1M61 139h1M64 139h1M67 139h1M70 139h1M73 139h1M76 139h1M79 139h1M82 139h1M85 139h1M88 139h1M91 139h1M94 139h1M97 139h1M100 139h1M103 139h1M106 139h1M108 139h1M110 139h1M1 140h1M4 140h1M7 140h1M10 140h1M13 140h1M16 140h1M19 140h1M22 140h1M25 140h1M28 140h1M31 140h1M34 140h1M37 140h1M40 140h1M43 140h1M46 140h1M49 140h1M52 140h1M55 140h1M58 140h1M61 140h1M64 140h1M67 140h1M70 140h1M73 140h1M76 140h1M79 140h1M82 140h1M85 140h1M88 140h1M91 140h1M94 140h1M97 140h1M100 140h1M103 140h1M106 140h1M109 140h2" />
<path stroke="#e6b5b7" d="M1 0h1M4 0h1M7 0h1M10 0h1M13 0h1M16 0h1M19 0h1M22 0h1M25 0h1M28 0h1M31 0h1M34 0h1M37 0h1M40 0h1M43 0h1M46 0h1M49 0h1M52 0h1M55 0h1M58 0h1M61 0h1M64 0h1M67 0h1M70 0h1M73 0h1M76 0h1M79 0h1M82 0h1M85 0h1M88 0h1M91 0h1M94 0h1M97 0h1M100 0h1M103 0h1M106 0h1M109 0h1M1 1h1M4 1h1M7 1h1M10 1h1M13 1h1M16 1h1M19 1h1M22 1h1M25 1h1M28 1h1M31 1h1M34 1h1M37 1h1M40 1h1M43 1h1M46 1h1M49 1h1M52 1h1M55 1h1M58 1h1M61 1h1M64 1h1M67 1h1M70 1h1M73 1h1M76 1h1M79 1h1M82 1h1M85 1h1M88 1h1M91 1h1M94 1h1M97 1h1M100 1h1M103 1h1M106 1h1M109 1h1M1 2h1M4 2h1M7 2h1M10 2h1M13 2h1M16 2h1M19 2h1M22 2h1M25 2h1M28 2h1M31 2h1M34 2h1M37 2h1M40 2h1M43 2h1M46 2h1M49 2h1M52 2h1M55 2h1M58 2h1M61 2h1M64 2h1M67 2h1M70 2h1M73 2h1M76 2h1M79 2h1M82 2h1M85 2h1M88 2h1M91 2h1M94 2h1M97 2h1M100 2h1M103 2h1M106 2h1M109 2h1M1 3h1M4 3h1M7 3h1M10 3h1M13 3h1M16 3h1M19 3h1M22 3h1M25 3h1M28 3h1M31 3h1M34 3h1M37 3h1M40 3h1M43 3h1M46 3h1M49 3h1M52 3h1M55 3h1M58 3h1M61 3h1M64 3h1M67 3h1M70 3h1M73 3h1M76 3h1M79 3h1M82 3h1M85 3h1M88 3h1M91 3h1M94 3h1M97 3h1M100 3h1M103 3h1M106 3h1M109 3h1M1 4h1M4 4h1M7 4h1M10 4h1M13 4h1M16 4h1M19 4h1M22 4h1M25 4h1M28 4h1M31 4h1M34 4h1M37 4h1M40 4h1M43 4h1M46 4h1M49 4h1M52 4h1M55 4h1M58 4h1M61 4h1M64 4h1M67 4h1M70 4h1M73 4h1M76 4h1M79 4h1M82 4h1M85 4h1M88 4h1M91 4h1M94 4h1M97 4h1M100 4h1M103 4h1M106 4h1M109 4h1M1 5h1M4 5h1M7 5h1M10 5h1M13 5h1M16 5h1M19 5h1M22 5h1M25 5h1M28 5h1M31 5h1M34 5h1M37 5h1M40 5h1M43 5h1M46 5h1M49 5h1M52 5h1M55 5h1M58 5h1M61 5h1M64 5h1M67 5h1M70 5h1M73 5h1M76 5h1M79 5h1M82 5h1M85 5h1M88 5h1M91 5h1M94 5h1M97 5h1M100 5h1M103 5h1M106 5h1M109 5h1M1 6h1M4 6h1M7 6h1M10 6h1M13 6h1M16 6h1M19 6h1M22 6h1M25 6h1M28 6h1M31 6h1M34 6h1M37 6h1M40 6h1M43 6h1M46 6h1M49 6h1M52 6h1M55 6h1M58 6h1M61 6h1M64 6h1M67 6h1M70 6h1M73 6h1M76 6h1M79 6h1M82 6h1M85 6h1M88 6h1M91 6h1M94 6h1M97 6h1M100 6h1M103 6h1M106 6h1M109 6h1M1 7h1M4 7h1M7 7h1M10 7h1M13 7h1M16 7h1M19 7h1M22 7h1M25 7h1M28 7h1M31 7h1M34 7h1M37 7h1M40 7h1M43 7h1M46 7h1M49 7h1M52 7h1M55 7h1M58 7h1M61 7h1M64 7h1M67 7h1M70 7h1M73 7h1M76 7h1M79 7h1M82 7h1M85 7h1M88 7h1M91 7h1M94 7h1M97 7h1M100 7h1M103 7h1M106 7h1M109 7h1M1 8h1M4 8h1M7 8h1M10 8h1M13 8h1M16 8h1M19 8h1M22 8h1M25 8h1M28 8h1M31 8h1M34 8h1M37 8h1M40 8h1M43 8h1M46 8h1M49 8h1M52 8h1M55 8h1M58 8h1M61 8h1M64 8h1M67 8h1M70 8h1M73 8h1M76 8h1M79 8h1M82 8h1M85 8h1M88 8h1M91 8h1M94 8h1M97 8h1M100 8h1M103 8h1M106 8h1M109 8h1M2 9h1M4 9h1M7 9h1M11 9h1M13 9h1M17 9h1M19 9h1M23 9h1M25 9h1M29 9h1M31 9h1M34 9h1M37 9h1M40 9h1M43 9h1M46 9h1M49 9h1M52 9h1M55 9h1M58 9h1M61 9h1M64 9h1M67 9h1M70 9h1M74 9h1M76 9h1M80 9h1M82 9h1M85 9h1M88 9h1M91 9h1M94 9h1M97 9h1M100 9h1M104 9h1M106 9h1M109 9h1M1 10h1M4 10h1M7 10h1M10 10h1M13 10h1M16 10h1M19 10h1M22 10h1M25 10h1M28 10h1M31 10h1M34 10h1M37 10h1M40 10h1M43 10h1M46 10h1M49 10h1M52 10h1M55 10h1M58 10h1M61 10h1M64 10h1M67 10h1M70 10h1M73 10h1M76 10h1M79 10h1M82 10h1M85 10h1M88 10h1M91 10h1M94 10h1M97 10h1M100 10h1M103 10h1M106 10h1M109 10h1M0 11h1M4 11h1M7 11h1M9 11h1M13 11h1M15 11h1M19 11h1M21 11h1M25 11h1M27 11h1M31 11h1M34 11h1M37 11h1M40 11h1M43 11h1M46 11h1M49 11h1M52 11h1M55 11h1M58 11h1M61 11h1M64 11h1M67 11h1M70 11h1M72 11h1M76 11h1M78 11h1M82 11h1M85 11h1M88 11h1M91 11h1M94 11h1M97 11h1M100 11h1M102 11h1M106 11h1M109 11h1M2 12h1M5 12h1M8 12h1M11 12h1M14 12h1M17 12h1M20 12h1M23 12h1M26 12h1M29 12h1M32 12h1M35 12h1M37 12h1M41 12h1M44 12h1M46 12h1M50 12h1M53 12h1M56 12h1M59 12h1M62 12h1M65 12h1M67 12h1M71 12h1M74 12h1M77 12h1M80 12h1M82 12h1M86 12h1M89 12h1M92 12h1M95 12h1M97 12h1M100 12h1M104 12h1M106 12h1M109 12h1M1 13h1M4 13h1M7 13h1M10 13h1M13 13h1M16 13h1M19 13h1M22 13h1M25 13h1M28 13h1M31 13h1M34 13h1M37 13h1M40 13h1M43 13h1M46 13h1M49 13h1M52 13h1M55 13h1M58 13h1M61 13h1M64 13h1M67 13h1M70 13h1M73 13h1M76 13h1M79 13h1M82 13h1M85 13h1M88 13h1M91 13h1M94 13h1M97 13h1M100 13h1M103 13h1M106 13h1M109 13h1M0 14h1M3 14h1M6 14h1M9 14h1M12 14h1M15 14h1M18 14h1M21 14h1M24 14h1M27 14h1M30 14h1M33 14h1M37 14h1M39 14h1M42 14h1M46 14h1M48 14h1M51 14h1M54 14h1M57 14h1M60 14h1M63 14h1M67 14h1M69 14h1M72 14h1M75 14h1M78 14h1M82 14h1M84 14h1M87 14h1M90 14h1M93 14h1M97 14h1M100 14h1M102 14h1M106 14h1M109 14h1M0 15h2M5 15h1M8 15h1M11 15h1M14 15h1M17 15h1M20 15h1M23 15h1M26 15h1M29 15h1M32 15h1M35 15h1M38 15h1M41 15h1M44 15h1M47 15h1M50 15h1M53 15h1M56 15h1M59 15h1M62 15h1M65 15h1M68 15h1M71 15h1M74 15h3M78 15h2M81 15h2M84 15h2M87 15h2M90 15h2M93 15h2M96 15h2M101 15h1M104 15h1M107 15h1M109 15h1M0 16h1M2 16h1M4 16h1M7 16h1M10 16h1M13 16h1M16 16h1M19 16h1M22 16h1M25 16h1M28 16h1M31 16h1M34 16h1M37 16h1M40 16h1M43 16h1M46 16h1M49 16h1M52 16h1M55 16h1M58 16h1M61 16h1M64 16h1M67 16h1M70 16h1M73 16h1M75 16h1M77 16h2M80 16h2M83 16h2M86 16h2M89 16h2M92 16h2M95 16h2M98 16h1M100 16h1M103 16h1M106 16h1M109 16h1M1 17h3M6 17h1M9 17h1M12 17h1M15 17h1M18 17h1M21 17h1M24 17h1M27 17h1M30 17h1M33 17h1M36 17h1M39 17h1M42 17h1M45 17h1M48 17h1M51 17h1M54 17h1M57 17h1M60 17h1M63 17h1M66 17h1M69 17h1M72 17h1M76 17h2M79 17h2M82 17h2M85 17h2M88 17h2M91 17h2M94 17h2M97 17h3M102 17h1M105 17h1M109 17h1M0 18h2M5 18h3M11 18h1M14 18h1M17 18h3M23 18h1M26 18h1M29 18h1M32 18h1M35 18h1M38 18h1M41 18h1M44 18h1M47 18h1M50 18h3M56 18h1M59 18h1M62 18h1M65 18h3M69 18h2M74 18h3M78 18h2M81 18h2M84 18h2M87 18h2M90 18h2M93 18h2M96 18h2M99 18h2M104 18h1M107 18h1M110 18h1M0 19h1M2 19h1M4 19h1M6 19h1M8 19h1M10 19h1M13 19h1M16 19h1M18 19h1M20 19h1M22 19h1M25 19h1M28 19h1M31 19h1M34 19h1M37 19h1M40 19h1M43 19h1M46 19h1M49 19h1M51 19h1M53 19h1M55 19h1M58 19h1M61 19h1M64 19h1M66 19h1M68 19h2M71 19h1M73 19h1M75 19h1M77 19h2M80 19h2M83 19h2M86 19h2M89 19h2M92 19h2M95 19h2M98 19h2M101 19h1M103 19h1M106 19h1M109 19h1M1 20h3M7 20h3M12 20h1M15 20h1M19 20h3M24 20h1M27 20h1M30 20h1M33 20h1M36 20h1M39 20h1M42 20h1M45 20h1M48 20h1M52 20h3M57 20h1M60 20h1M63 20h1M67 20h2M70 20h3M76 20h2M79 20h2M82 20h2M85 20h2M88 20h2M91 20h2M94 20h2M97 20h2M100 20h3M105 20h1M108 20h1M0 21h2M5 21h3M11 21h1M14 21h1M17 21h3M23 21h1M26 21h1M29 21h1M32 21h1M35 21h1M38 21h1M41 21h1M44 21h1M47 21h1M50 21h3M54 21h2M59 21h3M65 21h3M69 21h2M74 21h3M78 21h2M81 21h2M84 21h2M87 21h2M90 21h2M93 21h2M96 21h2M99 21h2M104 21h1M107 21h1M110 21h1M0 22h1M2 22h1M4 22h1M6 22h1M8 22h1M10 22h1M13 22h1M16 22h1M18 22h1M20 22h1M22 22h1M25 22h1M28 22h1M31 22h1M34 22h1M37 22h1M40 22h1M43 22h1M46 22h1M49 22h1M51 22h1M53 22h2M56 22h1M58 22h1M60 22h1M62 22h1M64 22h1M66 22h1M68 22h2M71 22h1M73 22h1M75 22h1M77 22h2M80 22h2M83 22h2M86 22h2M89 22h2M92 22h2M95 22h2M98 22h2M101 22h1M103 22h1M106 22h1M109 22h1M1 23h3M7 23h3M12 23h1M15 23h1M19 23h3M24 23h1M27 23h1M30 23h1M33 23h1M36 23h1M39 23h1M42 23h1M45 23h1M48 23h1M52 23h2M55 23h3M61 23h3M67 23h2M70 23h3M76 23h2M79 23h2M82 23h2M85 23h2M88 23h2M91 23h2M94 23h2M97 23h2M100 23h3M105 23h1M108 23h1M0 24h2M3 24h2M6 24h2M11 24h1M14 24h1M17 24h3M23 24h1M26 24h1M29 24h1M32 24h1M35 24h1M38 24h1M41 24h1M44 24h1M47 24h1M50 24h3M54 24h2M57 24h2M60 24h2M63 24h2M66 24h2M69 24h2M75 24h2M78 24h2M81 24h2M84 24h2M87 24h2M90 24h2M93 24h2M96 24h2M99 24h2M102 24h2M105 24h2M108 24h2M0 25h1M2 25h2M5 25h2M8 25h1M10 25h1M13 25h1M16 25h1M18 25h1M20 25h1M22 25h1M25 25h1M28 25h1M31 25h1M34 25h1M37 25h1M40 25h1M43 25h1M46 25h1M49 25h1M51 25h1M53 25h2M56 25h2M59 25h2M62 25h2M65 25h2M68 25h2M71 25h1M73 25h1M75 25h1M77 25h2M80 25h2M83 25h2M86 25h2M89 25h2M92 25h2M95 25h2M98 25h2M101 25h2M104 25h2M107 25h2M110 25h1M1 26h2M4 26h2M7 26h3M12 26h1M15 26h1M19 26h3M24 26h1M27 26h1M30 26h1M33 26h1M36 26h1M39 26h1M42 26h1M45 26h1M48 26h1M52 26h2M55 26h2M58 26h2M61 26h2M64 26h2M67 26h2M70 26h2M76 26h2M79 26h2M82 26h2M85 26h2M88 26h2M91 26h2M94 26h2M97 26h2M100 26h2M103 26h2M106 26h2M109 26h2M0 27h2M3 27h2M6 27h2M9 27h2M14 27h1M17 27h3M21 27h2M24 27h2M27 27h2M30 27h2M33 27h2M36 27h2M39 27h2M44 27h1M47 27h3M51 27h2M54 27h2M57 27h2M60 27h2M63 27h2M66 27h2M69 27h2M72 27h2M75 27h2M78 27h2M81 27h2M84 27h2M87 27h2M90 27h2M93 27h2M96 27h2M99 27h2M102 27h2M105 27h2M108 27h2M0 28h1M2 28h2M5 28h2M8 28h2M11 28h1M13 28h1M16 28h1M18 28h1M20 28h2M23 28h2M26 28h2M29 28h2M32 28h2M35 28h2M38 28h2M41 28h1M43 28h1M46 28h1M48 28h1M50 28h2M53 28h2M56 28h2M59 28h2M62 28h2M65 28h2M68 28h2M71 28h2M74 28h2M77 28h2M80 28h2M83 28h2M86 28h2M89 28h2M92 28h2M95 28h2M98 28h2M101 28h2M104 28h2M107 28h2M110 28h1M1 29h2M4 29h2M7 29h2M10 29h3M15 29h1M19 29h2M22 29h2M25 29h2M28 29h2M31 29h2M34 29h2M37 29h2M40 29h3M45 29h1M49 29h2M52 29h2M55 29h2M58 29h2M61 29h2M64 29h2M67 29h2M70 29h2M73 29h2M76 29h2M79 29h2M82 29h2M85 29h2M88 29h2M91 29h2M94 29h2M97 29h2M100 29h2M103 29h2M106 29h2M109 29h2M0 30h2M3 30h2M6 30h2M9 30h2M12 30h2M15 30h2M18 30h2M21 30h2M24 30h2M27 30h2M30 30h2M33 30h2M36 30h2M39 30h2M44 30h1M47 30h3M51 30h2M54 30h2M57 30h2M60 30h2M63 30h2M66 30h2M69 30h2M72 30h2M75 30h2M78 30h2M81 30h2M84 30h2M87 30h2M90 30h2M93 30h2M96 30h2M99 30h2M102 30h2M105 30h2M108 30h2M0 31h1M2 31h2M5 31h2M8 31h2M11 31h2M14 31h2M17 31h2M20 31h2M23 31h2M26 31h2M29 31h2M32 31h2M35 31h2M38 31h2M41 31h1M43 31h1M46 31h1M48 31h1M50 31h2M53 31h2M56 31h2M59 31h2M62 31h2M65 31h2M68 31h2M71 31h2M74 31h2M77 31h2M80 31h2M83 31h2M86 31h2M89 31h2M92 31h2M95 31h2M98 31h2M101 31h2M104 31h2M107 31h2M110 31h1M1 32h2M4 32h2M7 32h2M10 32h2M13 32h2M16 32h2M19 32h2M22 32h2M25 32h2M28 32h2M31 32h2M34 32h2M37 32h2M40 32h3M45 32h1M49 32h2M52 32h2M55 32h2M58 32h2M61 32h2M64 32h2M67 32h2M70 32h2M73 32h2M76 32h2M79 32h2M82 32h2M85 32h2M88 32h2M91 32h2M94 32h2M97 32h2M100 32h2M103 32h2M106 32h2M109 32h2M0 33h2M3 33h2M6 33h2M9 33h2M12 33h2M15 33h2M18 33h2M21 33h2M24 33h2M27 33h2M30 33h2M33 33h2M36 33h2M39 33h2M44 33h3M48 33h2M51 33h2M54 33h2M57 33h2M60 33h2M63 33h2M66 33h2M69 33h2M72 33h2M78 33h2M81 33h2M84 33h2M87 33h2M90 33h2M93 33h2M96 33h2M99 33h2M102 33h2M105 33h2M108 33h2M0 34h1M2 34h2M5 34h2M8 34h2M11 34h2M14 34h2M17 34h2M20 34h2M23 34h2M26 34h2M29 34h2M32 34h2M35 34h2M38 34h2M41 34h1M43 34h1M45 34h1M47 34h2M50 34h2M53 34h2M56 34h2M59 34h2M62 34h2M65 34h2M68 34h2M71 34h2M74 34h1M76 34h1M78 34h1M80 34h2M83 34h2M86 34h2M89 34h2M92 34h2M95 34h2M98 34h2M101 34h2M104 34h2M107 34h2M110 34h1M1 35h2M4 35h2M7 35h2M10 35h2M13 35h2M16 35h2M19 35h2M22 35h2M25 35h2M28 35h2M31 35h2M34 35h2M37 35h2M40 35h3M46 35h2M49 35h2M52 35h2M55 35h2M58 35h2M61 35h2M64 35h2M67 35h2M70 35h2M73 35h2M79 35h2M82 35h2M85 35h2M88 35h2M91 35h2M94 35h2M97 35h2M100 35h2M103 35h2M106 35h2M109 35h2M0 36h2M3 36h2M6 36h2M9 36h2M12 36h2M15 36h2M18 36h2M21 36h2M24 36h2M27 36h2M30 36h2M33 36h2M36 36h2M39 36h2M44 36h3M48 36h2M51 36h2M54 36h2M57 36h2M60 36h2M63 36h2M66 36h2M69 36h2M72 36h2M75 36h2M78 36h2M81 36h2M84 36h2M87 36h2M90 36h2M93 36h2M96 36h2M99 36h2M102 36h2M105 36h2M108 36h2M0 37h1M2 37h2M5 37h2M8 37h2M11 37h2M14 37h2M17 37h2M20 37h2M23 37h2M26 37h2M29 37h2M32 37h2M35 37h2M38 37h2M41 37h1M43 37h1M45 37h1M47 37h2M50 37h2M53 37h2M56 37h2M59 37h2M62 37h2M65 37h2M68 37h2M71 37h2M74 37h2M77 37h2M80 37h2M83 37h2M86 37h2M89 37h2M92 37h2M95 37h2M98 37h2M101 37h2M104 37h2M107 37h2M110 37h1M1 38h2M4 38h2M7 38h2M10 38h2M13 38h2M16 38h2M19 38h2M22 38h2M25 38h2M28 38h2M31 38h2M34 38h2M37 38h2M40 38h3M46 38h2M49 38h2M52 38h2M55 38h2M58 38h2M61 38h2M64 38h2M67 38h2M70 38h2M73 38h2M76 38h2M79 38h2M82 38h2M85 38h2M88 38h2M91 38h2M94 38h2M97 38h2M100 38h2M103 38h2M106 38h2M109 38h2M0 39h2M3 39h2M6 39h2M9 39h2M12 39h2M15 39h2M18 39h2M21 39h2M24 39h2M27 39h2M30 39h2M33 39h2M36 39h2M39 39h2M42 39h2M45 39h2M51 39h2M54 39h2M57 39h2M60 39h2M66 39h2M69 39h2M72 39h2M75 39h2M78 39h2M81 39h2M84 39h2M87 39h2M93 39h2M96 39h2M99 39h2M102 39h2M105 39h2M108 39h2M0 40h1M2 40h2M5 40h2M8 40h2M11 40h2M14 40h2M17 40h2M20 40h2M23 40h2M26 40h2M29 40h2M32 40h2M35 40h2M38 40h2M41 40h2M44 40h2M47 40h1M49 40h1M51 40h1M53 40h2M56 40h2M59 40h2M62 40h1M64 40h1M66 40h1M68 40h2M71 40h2M74 40h2M77 40h2M80 40h2M83 40h2M86 40h2M89 40h1M91 40h1M93 40h1M95 40h2M98 40h2M101 40h2M104 40h2M107 40h2M110 40h1M1 41h2M4 41h2M7 41h2M10 41h2M13 41h2M16 41h2M19 41h2M22 41h2M25 41h2M28 41h2M31 41h2M34 41h2M37 41h2M40 41h2M43 41h2M46 41h2M52 41h2M55 41h2M58 41h2M61 41h2M67 41h2M70 41h2M73 41h2M76 41h2M79 41h2M82 41h2M85 41h2M88 41h2M94 41h2M97 41h2M100 41h2M103 41h2M106 41h2M109 41h2M0 42h2M3 42h2M6 42h2M9 42h2M12 42h2M18 42h2M21 42h2M24 42h2M27 42h2M30 42h2M33 42h2M36 42h2M39 42h2M42 42h2M45 42h2M48 42h2M51 42h2M54 42h2M60 42h2M63 42h2M66 42h2M69 42h2M72 42h2M75 42h2M78 42h2M81 42h2M84 42h2M87 42h2M90 42h2M93 42h2M96 42h2M99 42h2M102 42h2M105 42h2M108 42h2M0 43h1M2 43h2M5 43h2M8 43h2M11 43h2M14 43h1M16 43h1M18 43h1M20 43h2M23 43h2M26 43h2M29 43h2M32 43h2M35 43h2M38 43h2M41 43h2M44 43h2M47 43h2M50 43h2M53 43h2M56 43h1M58 43h1M60 43h1M62 43h2M65 43h2M68 43h2M71 43h2M74 43h2M77 43h2M80 43h2M83 43h2M86 43h2M89 43h2M92 43h2M95 43h2M98 43h2M101 43h2M104 43h2M107 43h2M110 43h1M1 44h2M4 44h2M7 44h2M10 44h2M13 44h2M19 44h2M22 44h2M25 44h2M28 44h2M31 44h2M34 44h2M37 44h2M40 44h2M43 44h2M46 44h2M49 44h2M52 44h2M55 44h2M61 44h2M64 44h2M67 44h2M70 44h2M73 44h2M76 44h2M79 44h2M82 44h2M85 44h2M88 44h2M91 44h2M94 44h2M97 44h2M100 44h2M103 44h2M106 44h2M109 44h2M0 45h2M3 45h2M6 45h2M9 45h2M12 45h2M15 45h2M18 45h2M21 45h2M24 45h2M27 45h2M30 45h2M33 45h2M36 45h2M39 45h2M42 45h2M48 45h2M51 45h2M54 45h2M57 45h2M60 45h2M63 45h2M66 45h2M69 45h2M72 45h2M77 45h1M81 45h2M84 45h2M87 45h2M90 45h2M93 45h2M96 45h2M99 45h2M102 45h2M105 45h2M108 45h2M0 46h1M2 46h2M5 46h2M8 46h2M11 46h2M14 46h2M17 46h2M20 46h2M23 46h2M26 46h2M29 46h2M32 46h2M35 46h2M38 46h2M41 46h2M44 46h1M46 46h1M48 46h1M50 46h2M53 46h2M56 46h2M59 46h2M62 46h2M65 46h2M68 46h2M71 46h2M74 46h1M76 46h1M79 46h1M81 46h1M83 46h2M86 46h2M89 46h2M92 46h2M95 46h2M98 46h2M101 46h2M104 46h2M107 46h2M110 46h1M1 47h2M4 47h2M7 47h2M10 47h2M13 47h2M16 47h2M19 47h2M22 47h2M25 47h2M28 47h2M31 47h2M34 47h2M37 47h2M40 47h2M43 47h2M49 47h2M52 47h2M55 47h2M58 47h2M61 47h2M64 47h2M67 47h2M70 47h2M73 47h3M82 47h2M85 47h2M88 47h2M91 47h2M94 47h2M97 47h2M100 47h2M103 47h2M106 47h2M109 47h2M0 48h2M3 48h2M6 48h2M9 48h2M12 48h2M15 48h2M18 48h2M21 48h2M24 48h2M27 48h2M30 48h2M33 48h2M36 48h2M39 48h2M42 48h2M45 48h2M48 48h2M51 48h2M54 48h2M57 48h2M65 48h3M69 48h2M72 48h2M77 48h3M81 48h2M84 48h2M90 48h2M93 48h2M96 48h2M99 48h2M105 48h2M108 48h2M0 49h1M2 49h2M5 49h2M8 49h2M11 49h2M14 49h2M17 49h2M20 49h2M23 49h2M26 49h2M29 49h2M32 49h2M35 49h2M38 49h2M41 49h2M44 49h2M47 49h2M50 49h2M53 49h2M56 49h2M59 49h1M61 49h1M64 49h1M66 49h1M68 49h2M71 49h2M74 49h1M76 49h1M78 49h1M80 49h2M83 49h2M86 49h1M88 49h1M90 49h1M92 49h2M95 49h2M98 49h2M101 49h1M103 49h1M105 49h1M107 49h2M110 49h1M1 50h2M4 50h2M7 50h2M10 50h2M13 50h2M16 50h2M19 50h2M22 50h2M25 50h2M28 50h2M31 50h2M34 50h2M37 50h2M40 50h2M43 50h2M46 50h2M49 50h2M52 50h2M55 50h2M58 50h2M63 50h1M67 50h2M70 50h2M73 50h3M79 50h2M82 50h2M85 50h2M91 50h2M94 50h2M97 50h2M100 50h2M106 50h2M109 50h2M3 51h2M6 51h2M9 51h2M12 51h2M15 51h2M18 51h2M21 51h2M24 51h2M27 51h2M30 51h2M33 51h2M36 51h2M39 51h2M45 51h2M48 51h2M51 51h2M54 51h2M57 51h2M60 51h2M65 51h3M69 51h2M72 51h2M77 51h1M80 51h3M84 51h2M87 51h2M92 51h3M96 51h2M99 51h2M102 51h2M108 51h2M1 52h1M3 52h1M5 52h2M8 52h2M11 52h2M14 52h2M17 52h2M20 52h2M23 52h2M26 52h2M29 52h2M32 52h2M35 52h2M38 52h2M41 52h1M43 52h1M45 52h1M47 52h2M50 52h2M53 52h2M56 52h2M59 52h2M62 52h1M64 52h1M66 52h1M68 52h2M71 52h2M74 52h1M76 52h1M79 52h1M81 52h1M83 52h2M86 52h2M89 52h1M91 52h1M93 52h1M95 52h2M98 52h2M101 52h2M104 52h1M106 52h1M108 52h1M110 52h1M4 53h2M7 53h2M10 53h2M13 53h2M16 53h2M19 53h2M22 53h2M25 53h2M28 53h2M31 53h2M34 53h2M37 53h2M40 53h2M46 53h2M49 53h2M52 53h2M55 53h2M58 53h2M61 53h3M67 53h2M70 53h2M73 53h3M78 53h1M82 53h2M85 53h2M88 53h3M94 53h2M97 53h2M100 53h2M103 53h2M109 53h2M0 54h2M3 54h2M6 54h2M9 54h2M12 54h2M17 54h3M21 54h2M24 54h2M27 54h2M30 54h2M36 54h2M39 54h2M42 54h2M45 54h2M50 54h3M54 54h2M59 54h3M65 54h3M69 54h2M72 54h2M77 54h1M80 54h3M87 54h2M92 54h1M96 54h2M99 54h2M102 54h2M105 54h2M108 54h2M0 55h1M2 55h2M5 55h2M8 55h2M11 55h2M14 55h1M16 55h1M18 55h1M20 55h2M23 55h2M26 55h2M29 55h2M32 55h1M34 55h1M36 55h1M38 55h2M41 55h2M44 55h2M47 55h1M49 55h1M51 55h1M53 55h2M56 55h1M58 55h1M60 55h1M62 55h1M64 55h1M66 55h1M68 55h2M71 55h2M74 55h1M76 55h1M79 55h1M81 55h1M83 55h1M85 55h1M87 55h1M89 55h1M91 55h1M94 55h1M96 55h1M98 55h2M101 55h2M104 55h2M107 55h2M110 55h1M1 56h2M4 56h2M7 56h2M10 56h2M13 56h3M19 56h2M22 56h2M25 56h2M28 56h2M31 56h2M37 56h2M40 56h2M43 56h2M46 56h3M52 56h2M55 56h3M61 56h3M67 56h2M70 56h2M73 56h3M78 56h1M82 56h2M88 56h3M97 56h2M100 56h2M103 56h2M106 56h2M109 56h2M0 57h2M3 57h2M6 57h2M9 57h2M12 57h2M17 57h3M21 57h2M24 57h2M27 57h2M30 57h2M33 57h2M36 57h2M39 57h2M42 57h2M45 57h2M50 57h3M54 57h2M59 57h1M62 57h1M65 57h3M69 57h2M72 57h2M77 57h1M80 57h3M84 57h2M87 57h2M92 57h3M96 57h2M99 57h2M104 57h3M108 57h2M0 58h1M2 58h2M5 58h2M8 58h2M11 58h2M14 58h1M16 58h1M18 58h1M20 58h2M23 58h2M26 58h2M29 58h2M32 58h2M35 58h2M38 58h2M41 58h2M44 58h2M47 58h1M49 58h1M51 58h1M53 58h2M56 58h1M58 58h1M61 58h1M64 58h1M66 58h1M68 58h2M71 58h2M74 58h1M76 58h1M79 58h1M81 58h1M83 58h2M86 58h2M89 58h1M91 58h1M93 58h1M95 58h2M98 58h2M101 58h1M103 58h1M105 58h1M107 58h2M110 58h1M1 59h2M4 59h2M7 59h2M10 59h2M13 59h3M19 59h2M22 59h2M25 59h2M28 59h2M31 59h2M34 59h2M37 59h2M40 59h2M43 59h2M46 59h3M52 59h2M55 59h3M60 59h1M63 59h1M67 59h2M70 59h2M73 59h3M78 59h1M82 59h2M85 59h2M88 59h3M94 59h2M97 59h2M100 59h3M106 59h2M109 59h2M0 60h2M3 60h2M9 60h2M12 60h2M17 60h3M24 60h2M27 60h2M30 60h2M33 60h2M36 60h2M44 60h1M47 60h1M50 60h3M59 60h1M62 60h1M65 60h3M69 60h2M72 60h2M77 60h1M80 60h3M84 60h2M89 60h1M92 60h3M96 60h2M104 60h1M107 60h3M0 61h1M2 61h2M5 61h1M7 61h1M9 61h1M11 61h2M14 61h1M16 61h1M18 61h1M20 61h1M22 61h1M24 61h1M26 61h2M29 61h2M32 61h2M35 61h2M38 61h1M40 61h1M43 61h1M46 61h1M49 61h1M51 61h1M53 61h1M55 61h1M58 61h1M61 61h1M64 61h1M66 61h1M68 61h2M71 61h2M74 61h1M76 61h1M79 61h1M81 61h1M83 61h2M86 61h1M88 61h1M91 61h1M93 61h1M95 61h2M98 61h1M100 61h1M103 61h1M106 61h1M108 61h1M110 61h1M1 62h2M4 62h2M10 62h2M13 62h3M19 62h2M25 62h2M28 62h2M31 62h2M34 62h2M37 62h2M42 62h1M45 62h1M48 62h1M52 62h2M57 62h1M60 62h1M63 62h1M67 62h2M70 62h2M73 62h3M78 62h1M82 62h2M85 62h3M90 62h1M94 62h2M97 62h2M102 62h1M105 62h1M109 62h2M0 63h2M3 63h2M6 63h2M9 63h2M12 63h2M17 63h3M21 63h2M24 63h2M27 63h2M30 63h2M33 63h2M36 63h2M39 63h2M44 63h1M47 63h1M50 63h3M54 63h2M59 63h1M62 63h1M65 63h3M69 63h2M72 63h1M74 63h1M77 63h1M80 63h3M84 63h2M89 63h1M92 63h1M95 63h3M99 63h2M104 63h1M107 63h3M0 64h1M2 64h2M5 64h2M8 64h2M11 64h2M14 64h1M16 64h1M18 64h1M20 64h2M23 64h2M26 64h2M29 64h2M32 64h2M35 64h2M38 64h2M41 64h1M43 64h1M46 64h1M49 64h1M51 64h1M53 64h2M56 64h1M58 64h1M61 64h1M64 64h1M66 64h1M68 64h2M71 64h2M74 64h1M76 64h1M79 64h1M81 64h1M83 64h2M86 64h1M88 64h1M91 64h1M94 64h1M96 64h1M98 64h2M101 64h1M103 64h1M106 64h1M108 64h1M110 64h1M1 65h2M4 65h2M7 65h2M10 65h2M13 65h3M19 65h2M22 65h2M25 65h2M28 65h2M31 65h2M34 65h2M37 65h2M40 65h3M45 65h1M48 65h1M52 65h2M55 65h3M60 65h1M63 65h1M67 65h2M70 65h3M74 65h2M78 65h1M82 65h2M85 65h3M90 65h1M93 65h1M97 65h2M100 65h3M105 65h1M109 65h2M0 66h2M3 66h2M6 66h2M9 66h2M12 66h2M17 66h3M21 66h2M24 66h2M27 66h2M30 66h2M33 66h2M39 66h2M44 66h1M47 66h1M50 66h3M54 66h2M59 66h1M62 66h1M65 66h3M69 66h2M72 66h1M74 66h1M77 66h1M80 66h3M84 66h2M89 66h1M92 66h1M95 66h3M99 66h2M104 66h1M107 66h3M0 67h1M2 67h2M5 67h2M8 67h2M11 67h2M14 67h1M16 67h1M18 67h1M20 67h2M23 67h2M26 67h2M29 67h2M32 67h2M35 67h1M37 67h1M39 67h1M41 67h1M43 67h1M46 67h1M49 67h1M51 67h1M53 67h2M56 67h1M58 67h1M61 67h1M64 67h1M66 67h1M68 67h2M71 67h2M74 67h1M76 67h1M79 67h1M81 67h1M83 67h2M86 67h1M88 67h1M91 67h1M94 67h1M96 67h1M98 67h2M101 67h1M103 67h1M106 67h1M108 67h1M110 67h1M1 68h2M4 68h2M7 68h2M10 68h2M13 68h3M19 68h2M22 68h2M25 68h2M28 68h2M31 68h2M34 68h2M40 68h3M45 68h1M48 68h1M52 68h2M55 68h3M60 68h1M63 68h1M67 68h2M70 68h3M74 68h2M78 68h1M82 68h2M85 68h3M90 68h1M93 68h1M97 68h2M100 68h3M105 68h1M109 68h2M2 69h3M8 69h3M17 69h1M21 69h2M24 69h2M27 69h2M30 69h2M33 69h2M36 69h2M39 69h2M44 69h1M47 69h1M50 69h6M59 69h1M62 69h1M65 69h3M69 69h2M72 69h1M74 69h1M77 69h1M80 69h3M86 69h1M89 69h1M92 69h1M95 69h3M99 69h2M104 69h1M107 69h3M1 70h1M3 70h1M5 70h1M7 70h1M9 70h1M11 70h1M13 70h1M16 70h1M19 70h1M21 70h1M23 70h2M26 70h2M29 70h2M32 70h2M35 70h2M38 70h2M41 70h1M43 70h1M46 70h1M49 70h1M51 70h1M53 70h2M56 70h1M58 70h1M61 70h1M64 70h1M66 70h1M68 70h2M71 70h2M74 70h1M76 70h1M79 70h1M81 70h1M83 70h1M85 70h1M88 70h1M91 70h1M94 70h1M96 70h1M98 70h2M101 70h1M103 70h1M106 70h1M108 70h1M110 70h1M0 71h1M4 71h3M10 71h2M15 71h1M22 71h2M25 71h2M28 71h2M31 71h2M34 71h2M37 71h2M40 71h3M45 71h1M48 71h1M51 71h3M55 71h3M60 71h1M63 71h1M67 71h2M70 71h3M74 71h2M78 71h1M82 71h3M87 71h1M90 71h1M93 71h1M97 71h2M100 71h3M105 71h1M109 71h2M2 72h1M8 72h3M12 72h2M17 72h3M23 72h1M30 72h2M33 72h2M36 72h2M39 72h2M44 72h1M47 72h1M50 72h1M53 72h1M56 72h1M59 72h1M62 72h1M65 72h3M69 72h2M72 72h1M74 72h1M77 72h1M80 72h3M86 72h1M89 72h1M92 72h1M95 72h1M101 72h1M104 72h1M107 72h3M1 73h1M4 73h1M7 73h1M9 73h1M11 73h2M14 73h1M16 73h1M18 73h1M20 73h1M22 73h1M25 73h1M28 73h1M30 73h1M32 73h2M35 73h2M38 73h2M41 73h1M43 73h1M46 73h1M49 73h1M52 73h1M55 73h1M58 73h1M61 73h1M64 73h1M66 73h1M68 73h2M71 73h2M74 73h1M76 73h1M79 73h1M81 73h1M83 73h1M85 73h1M88 73h1M91 73h1M94 73h1M97 73h1M100 73h1M103 73h1M106 73h1M108 73h1M110 73h1M0 74h1M6 74h1M10 74h2M13 74h3M19 74h3M31 74h2M34 74h2M37 74h2M40 74h3M45 74h1M48 74h1M51 74h1M54 74h1M57 74h1M60 74h1M63 74h1M67 74h2M70 74h3M74 74h2M78 74h1M82 74h3M87 74h1M90 74h1M93 74h1M99 74h1M102 74h1M105 74h1M109 74h2M2 75h3M8 75h3M14 75h1M17 75h1M20 75h1M23 75h3M27 75h2M30 75h2M33 75h2M36 75h2M39 75h2M44 75h1M47 75h1M50 75h3M56 75h1M59 75h1M62 75h1M65 75h1M69 75h2M72 75h1M74 75h1M77 75h1M80 75h3M86 75h1M89 75h1M92 75h1M95 75h3M101 75h1M104 75h1M107 75h3M1 76h1M3 76h1M5 76h1M7 76h1M9 76h1M11 76h1M13 76h1M16 76h1M19 76h1M22 76h1M24 76h1M26 76h2M29 76h2M32 76h2M35 76h2M38 76h2M41 76h1M43 76h1M46 76h1M49 76h1M51 76h1M53 76h1M55 76h1M58 76h1M61 76h1M64 76h1M67 76h1M69 76h1M71 76h2M74 76h1M76 76h1M79 76h1M81 76h1M83 76h1M85 76h1M88 76h1M91 76h1M94 76h1M96 76h1M98 76h1M100 76h1M103 76h1M106 76h1M108 76h1M110 76h1M0 77h1M4 77h3M10 77h3M15 77h1M18 77h1M21 77h1M25 77h2M28 77h2M31 77h2M34 77h2M37 77h2M40 77h3M45 77h1M48 77h1M52 77h3M57 77h1M60 77h1M63 77h1M70 77h3M74 77h2M78 77h1M82 77h3M87 77h1M90 77h1M93 77h1M97 77h3M102 77h1M105 77h1M109 77h2M2 78h1M5 78h1M8 78h3M14 78h1M17 78h1M20 78h1M23 78h3M27 78h2M35 78h1M38 78h1M41 78h1M44 78h1M47 78h1M50 78h3M56 78h1M59 78h1M62 78h1M65 78h3M72 78h1M74 78h1M77 78h1M80 78h3M86 78h1M89 78h1M92 78h1M95 78h1M98 78h1M101 78h1M104 78h1M107 78h3M1 79h1M4 79h1M7 79h1M9 79h1M11 79h1M13 79h1M16 79h1M19 79h1M22 79h1M24 79h1M26 79h2M29 79h1M31 79h1M34 79h1M37 79h1M40 79h1M43 79h1M46 79h1M49 79h1M51 79h1M53 79h1M55 79h1M58 79h1M61 79h1M64 79h1M66 79h1M68 79h1M70 79h1M72 79h1M74 79h1M76 79h1M79 79h1M81 79h1M83 79h1M85 79h1M88 79h1M91 79h1M94 79h1M97 79h1M100 79h1M103 79h1M106 79h1M108 79h1M110 79h1M0 80h1M3 80h1M6 80h1M10 80h3M15 80h1M18 80h1M21 80h1M25 80h2M28 80h2M33 80h1M36 80h1M39 80h1M42 80h1M45 80h1M48 80h1M52 80h3M57 80h1M60 80h1M63 80h1M67 80h2M72 80h1M74 80h2M78 80h1M82 80h3M87 80h1M90 80h1M93 80h1M96 80h1M99 80h1M102 80h1M105 80h1M109 80h2M2 81h1M5 81h1M8 81h3M14 81h1M17 81h1M20 81h1M23 81h3M27 81h2M30 81h2M35 81h1M38 81h1M41 81h1M44 81h1M47 81h2M50 81h3M56 81h1M59 81h1M62 81h1M65 81h1M68 81h3M72 81h1M74 81h2M77 81h1M80 81h3M86 81h2M89 81h1M92 81h1M95 81h1M98 81h1M101 81h1M104 81h1M107 81h3M1 82h1M4 82h1M7 82h1M9 82h1M11 82h1M13 82h1M16 82h1M19 82h1M22 82h1M24 82h1M26 82h2M29 82h2M32 82h1M34 82h1M37 82h1M40 82h1M43 82h1M46 82h1M48 82h1M50 82h2M53 82h1M55 82h1M58 82h1M61 82h1M64 82h1M67 82h1M69 82h1M71 82h2M74 82h2M77 82h1M79 82h1M81 82h1M83 82h1M85 82h1M87 82h1M89 82h1M91 82h1M94 82h1M97 82h1M100 82h1M103 82h1M106 82h1M108 82h1M110 82h1M0 83h1M3 83h1M6 83h1M10 83h3M15 83h1M18 83h1M21 83h1M25 83h2M28 83h2M31 83h3M36 83h1M39 83h1M42 83h1M45 83h1M48 83h1M50 83h1M52 83h3M57 83h1M60 83h1M63 83h1M66 83h1M70 83h3M74 83h2M77 83h2M82 83h3M87 83h1M89 83h2M93 83h1M96 83h1M99 83h1M102 83h1M105 83h1M109 83h2M2 84h1M5 84h1M8 84h3M14 84h1M17 84h1M20 84h1M23 84h1M26 84h3M32 84h1M35 84h1M38 84h1M41 84h1M44 84h1M47 84h2M50 84h3M56 84h1M59 84h1M62 84h1M65 84h1M68 84h1M71 84h2M74 84h2M77 84h1M80 84h3M86 84h2M89 84h1M92 84h1M95 84h1M98 84h1M101 84h1M104 84h1M107 84h3M1 85h1M4 85h1M7 85h1M9 85h1M11 85h1M13 85h1M16 85h1M19 85h1M22 85h1M25 85h1M27 85h1M29 85h1M31 85h1M34 85h1M37 85h1M40 85h1M43 85h1M46 85h1M48 85h1M50 85h2M53 85h1M55 85h1M58 85h1M61 85h1M64 85h1M67 85h1M70 85h1M72 85h1M74 85h2M77 85h1M79 85h1M81 85h1M83 85h1M85 85h1M87 85h1M89 85h1M91 85h1M94 85h1M97 85h1M100 85h1M103 85h1M106 85h1M108 85h1M110 85h1M0 86h1M3 86h1M6 86h1M10 86h3M15 86h1M18 86h1M21 86h1M24 86h1M28 86h3M33 86h1M36 86h1M39 86h1M42 86h1M45 86h1M48 86h1M50 86h1M52 86h3M57 86h1M60 86h1M63 86h1M66 86h1M69 86h1M72 86h1M74 86h2M77 86h2M82 86h3M87 86h1M89 86h2M93 86h1M96 86h1M99 86h1M102 86h1M105 86h1M109 86h2M2 87h1M5 87h1M8 87h3M14 87h2M17 87h1M20 87h1M23 87h1M26 87h1M29 87h1M32 87h1M35 87h1M38 87h1M41 87h1M44 87h2M47 87h2M50 87h3M56 87h1M59 87h1M62 87h1M65 87h1M68 87h1M71 87h2M74 87h2M77 87h2M80 87h3M86 87h2M89 87h1M92 87h1M95 87h1M98 87h1M101 87h1M104 87h2M107 87h3M1 88h1M4 88h1M7 88h1M9 88h1M11 88h1M13 88h1M15 88h1M17 88h1M19 88h1M22 88h1M25 88h1M28 88h1M31 88h1M34 88h1M37 88h1M40 88h1M43 88h1M45 88h1M47 88h2M50 88h2M53 88h1M55 88h1M58 88h1M61 88h1M64 88h1M67 88h1M70 88h1M72 88h1M74 88h2M77 88h2M80 88h2M83 88h1M85 88h1M87 88h1M89 88h1M91 88h1M94 88h1M97 88h1M100 88h1M103 88h1M105 88h1M107 88h2M110 88h1M0 89h1M3 89h1M6 89h1M10 89h3M15 89h1M17 89h2M21 89h1M24 89h1M27 89h1M30 89h1M33 89h1M36 89h1M39 89h1M42 89h1M45 89h1M47 89h2M50 89h1M52 89h3M57 89h1M60 89h1M63 89h1M66 89h1M69 89h1M72 89h1M74 89h2M77 89h2M80 89h1M82 89h3M87 89h1M89 89h2M93 89h1M96 89h1M99 89h1M102 89h1M105 89h1M107 89h1M109 89h2M2 90h1M5 90h1M8 90h3M14 90h2M17 90h1M20 90h1M23 90h1M26 90h1M29 90h1M32 90h1M35 90h1M38 90h1M41 90h1M44 90h2M47 90h2M50 90h3M56 90h1M59 90h1M62 90h2M65 90h1M68 90h1M71 90h2M74 90h2M77 90h2M80 90h3M86 90h2M89 90h1M92 90h1M95 90h1M98 90h1M101 90h2M104 90h2M107 90h1M1 91h1M4 91h1M7 91h1M9 91h1M11 91h1M13 91h1M15 91h1M17 91h1M19 91h1M22 91h1M25 91h1M28 91h1M31 91h1M34 91h1M37 91h1M40 91h1M43 91h1M45 91h1M47 91h2M50 91h2M53 91h1M55 91h1M58 91h1M61 91h1M63 91h1M65 91h1M67 91h1M70 91h1M72 91h1M74 91h2M77 91h2M80 91h2M83 91h1M85 91h1M87 91h1M89 91h1M91 91h1M94 91h1M97 91h1M100 91h1M102 91h1M104 91h2M107 91h1M109 91h1M0 92h1M3 92h1M6 92h1M10 92h3M15 92h1M17 92h2M21 92h1M24 92h1M27 92h1M30 92h1M33 92h1M36 92h1M39 92h1M42 92h1M45 92h1M47 92h2M50 92h1M52 92h3M57 92h1M60 92h1M63 92h1M65 92h2M69 92h1M72 92h1M74 92h2M77 92h2M80 92h1M82 92h3M87 92h1M89 92h2M93 92h1M96 92h1M99 92h1M102 92h1M104 92h2M107 92h1M0 93h1M2 93h1M5 93h1M8 93h1M14 93h2M17 93h1M20 93h1M23 93h1M26 93h1M29 93h1M32 93h1M35 93h1M38 93h1M41 93h1M44 93h2M47 93h2M50 93h3M56 93h2M59 93h1M62 93h2M65 93h1M68 93h1M71 93h2M74 93h2M77 93h2M80 93h3M86 93h2M89 93h2M92 93h1M95 93h1M98 93h1M101 93h2M104 93h2M107 93h3M0 94h1M2 94h1M4 94h1M7 94h1M10 94h1M13 94h1M15 94h1M17 94h1M19 94h1M22 94h1M25 94h1M28 94h1M31 94h1M34 94h1M37 94h1M40 94h1M43 94h1M45 94h1M47 94h2M50 94h2M53 94h1M55 94h1M57 94h1M59 94h1M61 94h1M63 94h1M65 94h1M67 94h1M70 94h1M72 94h1M74 94h2M77 94h2M80 94h2M83 94h1M85 94h1M87 94h1M89 94h2M92 94h1M94 94h1M97 94h1M100 94h1M102 94h1M104 94h2M107 94h2M110 94h1M0 95h1M2 95h2M6 95h1M12 95h1M15 95h1M17 95h2M21 95h1M24 95h1M27 95h1M30 95h1M33 95h1M36 95h1M39 95h1M42 95h1M45 95h1M47 95h2M50 95h1M52 95h3M57 95h1M59 95h2M63 95h1M65 95h2M69 95h1M72 95h1M74 95h2M77 95h2M80 95h1M82 95h3M87 95h1M89 95h2M92 95h2M96 95h1M99 95h1M102 95h1M104 95h2M107 95h1M109 95h2M0 96h1M2 96h1M5 96h1M8 96h3M14 96h2M17 96h1M20 96h1M23 96h1M26 96h1M29 96h1M32 96h2M35 96h1M38 96h1M41 96h2M44 96h2M47 96h2M50 96h3M56 96h2M59 96h2M62 96h2M65 96h1M68 96h1M71 96h2M74 96h2M77 96h2M80 96h1M86 96h2M89 96h2M92 96h1M95 96h1M98 96h1M101 96h2M104 96h2M107 96h3M0 97h1M2 97h1M4 97h1M7 97h1M9 97h1M11 97h1M13 97h1M15 97h1M17 97h1M19 97h1M22 97h1M25 97h1M28 97h1M31 97h1M33 97h1M35 97h1M37 97h1M40 97h1M42 97h1M44 97h2M47 97h2M50 97h2M53 97h1M55 97h1M57 97h1M59 97h2M62 97h2M65 97h1M67 97h1M70 97h1M72 97h1M74 97h2M77 97h2M80 97h1M82 97h1M85 97h1M87 97h1M89 97h2M92 97h1M94 97h1M97 97h1M100 97h1M102 97h1M104 97h2M107 97h2M110 97h1M0 98h1M2 98h2M6 98h1M10 98h3M15 98h1M17 98h2M21 98h1M24 98h1M27 98h1M30 98h1M33 98h1M35 98h2M39 98h1M42 98h1M44 98h2M47 98h2M50 98h1M52 98h3M57 98h1M59 98h2M62 98h2M65 98h2M69 98h1M72 98h1M74 98h2M77 98h2M80 98h1M84 98h1M87 98h1M89 98h2M92 98h2M96 98h1M99 98h1M102 98h1M104 98h2M107 98h1M109 98h2M0 99h1M2 99h1M5 99h1M8 99h3M14 99h2M17 99h1M20 99h1M23 99h1M26 99h1M29 99h1M32 99h2M35 99h1M38 99h1M41 99h2M44 99h2M47 99h2M50 99h3M56 99h2M59 99h2M62 99h2M65 99h1M68 99h1M71 99h2M74 99h2M77 99h2M80 99h3M84 99h1M86 99h2M89 99h2M92 99h2M95 99h1M98 99h1M101 99h2M104 99h2M107 99h1M110 99h1M0 100h1M2 100h1M4 100h1M7 100h1M9 100h1M11 100h1M13 100h1M15 100h1M17 100h1M19 100h1M22 100h1M25 100h1M28 100h1M31 100h1M33 100h1M35 100h1M37 100h1M40 100h1M42 100h1M44 100h2M47 100h2M50 100h2M53 100h1M55 100h1M57 100h1M59 100h2M62 100h2M65 100h1M67 100h1M70 100h1M72 100h1M74 100h2M77 100h2M80 100h2M83 100h2M86 100h2M89 100h2M92 100h2M95 100h1M97 100h1M100 100h1M102 100h1M104 100h2M107 100h1M109 100h1M0 101h1M2 101h2M6 101h1M10 101h3M15 101h1M17 101h2M21 101h1M24 101h1M27 101h1M30 101h1M33 101h1M35 101h2M39 101h1M42 101h1M44 101h2M47 101h2M50 101h1M52 101h3M57 101h1M59 101h2M62 101h2M65 101h2M69 101h1M72 101h1M74 101h2M77 101h2M80 101h1M82 101h3M86 101h2M89 101h2M92 101h2M95 101h2M99 101h1M102 101h1M104 101h2M107 101h2M0 102h1M2 102h1M5 102h2M8 102h3M14 102h2M17 102h1M20 102h2M23 102h1M26 102h1M29 102h1M32 102h2M35 102h1M38 102h2M41 102h2M44 102h2M47 102h2M50 102h3M56 102h2M59 102h2M62 102h2M65 102h1M68 102h1M71 102h2M74 102h2M77 102h2M80 102h3M84 102h1M86 102h2M89 102h2M92 102h2M95 102h1M98 102h1M101 102h2M104 102h2M107 102h1M110 102h1M0 103h1M2 103h1M4 103h1M6 103h1M8 103h2M11 103h1M13 103h1M15 103h1M17 103h1M19 103h1M21 103h1M23 103h1M25 103h1M28 103h1M31 103h1M33 103h1M35 103h1M37 103h1M39 103h1M41 103h2M44 103h2M47 103h2M50 103h2M53 103h1M55 103h1M57 103h1M59 103h2M62 103h2M65 103h1M67 103h1M70 103h1M72 103h1M74 103h2M77 103h2M80 103h2M83 103h2M86 103h2M89 103h2M92 103h2M95 103h1M97 103h1M100 103h1M102 103h1M104 103h2M107 103h1M109 103h1M0 104h1M2 104h2M6 104h1M8 104h1M10 104h3M15 104h1M17 104h2M21 104h1M23 104h2M27 104h1M30 104h1M33 104h1M35 104h2M39 104h1M41 104h2M44 104h2M47 104h2M50 104h1M52 104h3M57 104h1M59 104h2M62 104h2M65 104h2M69 104h1M72 104h1M74 104h2M77 104h2M80 104h1M82 104h3M86 104h2M89 104h2M92 104h2M95 104h2M99 104h1M102 104h1M104 104h2M107 104h2M0 105h1M2 105h1M5 105h2M8 105h3M14 105h2M17 105h1M20 105h2M23 105h1M26 105h1M29 105h1M32 105h2M35 105h1M38 105h2M41 105h2M44 105h2M47 105h2M50 105h3M54 105h1M56 105h2M59 105h2M62 105h2M65 105h1M68 105h1M71 105h2M74 105h2M77 105h2M80 105h3M84 105h1M86 105h2M89 105h2M92 105h2M95 105h1M98 105h2M101 105h2M104 105h2M107 105h1M110 105h1M0 106h1M2 106h1M4 106h1M6 106h1M8 106h2M11 106h1M13 106h1M15 106h1M17 106h1M19 106h1M21 106h1M23 106h1M25 106h1M28 106h1M31 106h1M33 106h1M35 106h1M37 106h1M39 106h1M41 106h2M44 106h2M47 106h2M50 106h2M53 106h2M56 106h2M59 106h2M62 106h2M65 106h1M67 106h1M70 106h1M72 106h1M74 106h2M77 106h2M80 106h2M83 106h2M86 106h2M89 106h2M92 106h2M95 106h1M97 106h1M99 106h1M101 106h2M104 106h2M107 106h1M109 106h1M0 107h1M2 107h2M6 107h1M8 107h1M10 107h3M15 107h1M17 107h2M21 107h1M23 107h2M27 107h1M30 107h1M33 107h1M35 107h2M39 107h1M41 107h2M44 107h2M47 107h2M50 107h1M52 107h3M56 107h2M59 107h2M62 107h2M65 107h2M69 107h1M72 107h1M74 107h2M77 107h2M80 107h1M82 107h3M86 107h2M89 107h2M92 107h2M95 107h2M99 107h1M101 107h2M104 107h2M107 107h2M0 108h1M2 108h1M5 108h2M8 108h1M11 108h1M14 108h2M17 108h1M20 108h2M23 108h2M26 108h1M29 108h1M32 108h2M35 108h2M38 108h2M41 108h2M44 108h2M47 108h2M50 108h2M53 108h2M56 108h2M59 108h2M62 108h2M65 108h1M68 108h1M71 108h2M74 108h2M77 108h2M80 108h1M83 108h2M86 108h2M89 108h2M92 108h2M95 108h1M98 108h2M101 108h2M104 108h2M107 108h1M110 108h1M0 109h1M2 109h1M4 109h1M6 109h1M8 109h1M10 109h1M13 109h1M15 109h1M17 109h1M19 109h1M21 109h1M23 109h2M26 109h1M28 109h1M31 109h1M33 109h1M35 109h2M38 109h2M41 109h2M44 109h2M47 109h2M50 109h2M53 109h2M56 109h2M59 109h2M62 109h2M65 109h1M67 109h1M70 109h1M72 109h1M74 109h2M77 109h2M80 109h1M82 109h1M84 109h1M86 109h2M89 109h2M92 109h2M95 109h1M97 109h1M99 109h1M101 109h2M104 109h2M107 109h1M109 109h1M0 110h1M2 110h2M6 110h1M8 110h2M12 110h1M15 110h1M17 110h2M21 110h1M23 110h2M26 110h2M30 110h1M33 110h1M35 110h2M38 110h2M41 110h2M44 110h2M47 110h2M50 110h2M53 110h2M56 110h2M59 110h2M62 110h2M65 110h2M69 110h1M72 110h1M74 110h2M77 110h2M80 110h2M84 110h1M86 110h2M89 110h2M92 110h2M95 110h2M99 110h1M101 110h2M104 110h2M107 110h2M0 111h1M2 111h1M5 111h2M8 111h1M11 111h1M14 111h2M17 111h1M20 111h2M23 111h2M26 111h1M29 111h1M32 111h2M35 111h2M38 111h2M41 111h2M44 111h2M47 111h2M50 111h2M53 111h2M56 111h2M59 111h2M62 111h2M65 111h1M68 111h1M71 111h2M74 111h2M77 111h2M80 111h1M83 111h2M86 111h2M89 111h2M92 111h2M95 111h1M98 111h2M101 111h2M104 111h2M107 111h1M110 111h1M0 112h1M2 112h1M4 112h1M6 112h1M8 112h1M10 112h1M13 112h1M15 112h1M17 112h1M19 112h1M21 112h1M23 112h2M26 112h1M28 112h1M31 112h1M33 112h1M35 112h2M38 112h2M41 112h2M44 112h2M47 112h2M50 112h2M53 112h2M56 112h2M59 112h2M62 112h2M65 112h1M67 112h1M70 112h1M72 112h1M74 112h2M77 112h2M80 112h1M82 112h1M84 112h1M86 112h2M89 112h2M92 112h2M95 112h1M97 112h1M99 112h1M101 112h2M104 112h2M107 112h1M109 112h1M0 113h1M2 113h2M6 113h1M8 113h2M12 113h1M15 113h1M17 113h2M21 113h1M23 113h2M26 113h2M30 113h1M33 113h1M35 113h2M38 113h2M41 113h2M44 113h2M47 113h2M50 113h2M53 113h2M56 113h2M59 113h2M62 113h2M65 113h2M69 113h1M72 113h1M74 113h2M77 113h2M80 113h2M84 113h1M86 113h2M89 113h2M92 113h2M95 113h2M99 113h1M101 113h2M104 113h2M107 113h2M0 114h1M2 114h2M5 114h2M8 114h1M11 114h2M14 114h2M17 114h2M20 114h2M23 114h2M26 114h2M29 114h1M32 114h2M35 114h2M38 114h2M41 114h2M44 114h2M47 114h2M50 114h2M53 114h2M56 114h2M59 114h2M62 114h2M65 114h1M68 114h1M71 114h2M74 114h2M77 114h2M80 114h1M83 114h2M86 114h2M89 114h2M92 114h2M95 114h2M98 114h2M101 114h2M104 114h2M107 114h1M110 114h1M0 115h1M2 115h2M5 115h2M8 115h1M10 115h1M12 115h1M14 115h2M17 115h2M20 115h2M23 115h2M26 115h2M29 115h1M31 115h1M33 115h1M35 115h2M38 115h2M41 115h2M44 115h2M47 115h2M50 115h2M53 115h2M56 115h2M59 115h2M62 115h2M65 115h1M67 115h1M70 115h1M72 115h1M74 115h2M77 115h2M80 115h1M82 115h1M84 115h1M86 115h2M89 115h2M92 115h2M95 115h2M98 115h2M101 115h2M104 115h2M107 115h1M109 115h1M0 116h1M2 116h2M5 116h2M8 116h2M12 116h1M14 116h2M17 116h2M20 116h2M23 116h2M26 116h2M29 116h2M33 116h1M35 116h2M38 116h2M41 116h2M44 116h2M47 116h2M50 116h2M53 116h2M56 116h2M59 116h2M62 116h2M65 116h2M69 116h1M72 116h1M74 116h2M77 116h2M80 116h2M84 116h1M86 116h2M89 116h2M92 116h2M95 116h2M98 116h2M101 116h2M104 116h2M107 116h2M0 117h1M2 117h2M5 117h2M8 117h1M11 117h2M14 117h2M17 117h2M20 117h2M23 117h2M26 117h2M29 117h2M32 117h2M35 117h2M38 117h2M41 117h2M44 117h2M47 117h2M50 117h2M53 117h2M56 117h2M59 117h2M62 117h2M65 117h1M68 117h1M71 117h2M74 117h2M77 117h2M80 117h1M83 117h2M86 117h2M89 117h2M92 117h2M95 117h2M98 117h2M101 117h2M104 117h2M107 117h1M110 117h1M0 118h1M2 118h2M5 118h2M8 118h1M10 118h1M12 118h1M14 118h2M17 118h2M20 118h2M23 118h2M26 118h2M29 118h2M32 118h2M35 118h2M38 118h2M41 118h2M44 118h2M47 118h2M50 118h2M53 118h2M56 118h2M59 118h2M62 118h2M65 118h1M67 118h1M70 118h1M72 118h1M74 118h2M77 118h2M80 118h1M82 118h1M84 118h1M86 118h2M89 118h2M92 118h2M95 118h2M98 118h2M101 118h2M104 118h2M107 118h1M109 118h1M0 119h1M2 119h2M5 119h2M8 119h2M12 119h1M14 119h2M17 119h2M20 119h2M23 119h2M26 119h2M29 119h2M32 119h2M35 119h2M38 119h2M41 119h2M44 119h2M47 119h2M50 119h2M53 119h2M56 119h2M59 119h2M62 119h2M65 119h2M69 119h1M72 119h1M74 119h2M77 119h2M80 119h2M84 119h1M86 119h2M89 119h2M92 119h2M95 119h2M98 119h2M101 119h2M104 119h2M107 119h2M0 120h1M2 120h2M5 120h2M8 120h1M11 120h2M14 120h2M17 120h2M20 120h2M23 120h2M26 120h2M29 120h2M32 120h2M35 120h2M38 120h2M41 120h2M44 120h2M47 120h2M50 120h2M53 120h2M56 120h2M59 120h2M62 120h2M65 120h2M68 120h1M71 120h2M74 120h2M77 120h2M80 120h1M83 120h2M86 120h2M89 120h2M92 120h2M95 120h2M98 120h2M101 120h2M104 120h2M107 120h1M110 120h1M0 121h1M2 121h2M5 121h2M8 121h1M10 121h1M12 121h1M14 121h2M17 121h2M20 121h2M23 121h2M26 121h2M29 121h2M32 121h2M35 121h2M38 121h2M41 121h2M44 121h2M47 121h2M50 121h2M53 121h2M56 121h2M59 121h2M62 121h2M65 121h2M68 121h1M70 121h1M72 121h1M74 121h2M77 121h2M80 121h1M82 121h1M84 121h1M86 121h2M89 121h2M92 121h2M95 121h2M98 121h2M101 121h2M104 121h2M107 121h1M109 121h1M0 122h1M2 122h2M5 122h2M8 122h2M12 122h1M14 122h2M17 122h2M20 122h2M23 122h2M26 122h2M29 122h2M32 122h2M35 122h2M38 122h2M41 122h2M44 122h2M47 122h2M50 122h2M53 122h2M56 122h2M59 122h2M62 122h2M65 122h2M68 122h2M72 122h1M74 122h2M77 122h2M80 122h2M84 122h1M86 122h2M89 122h2M92 122h2M95 122h2M98 122h2M101 122h2M104 122h2M107 122h2M0 123h1M2 123h2M5 123h2M8 123h1M11 123h2M14 123h2M17 123h2M20 123h2M23 123h2M26 123h2M29 123h2M32 123h2M35 123h2M38 123h2M41 123h2M44 123h2M47 123h2M50 123h2M53 123h2M56 123h2M59 123h2M62 123h2M65 123h2M68 123h1M71 123h2M74 123h2M77 123h2M80 123h1M83 123h2M86 123h2M89 123h2M92 123h2M95 123h2M98 123h2M101 123h2M104 123h2M107 123h1M110 123h1M0 124h1M2 124h2M5 124h2M8 124h1M10 124h1M12 124h1M14 124h2M17 124h2M20 124h2M23 124h2M26 124h2M29 124h2M32 124h2M35 124h2M38 124h2M41 124h2M44 124h2M47 124h2M50 124h2M53 124h2M56 124h2M59 124h2M62 124h2M65 124h2M68 124h1M70 124h1M72 124h1M74 124h2M77 124h2M80 124h1M82 124h1M84 124h1M86 124h2M89 124h2M92 124h2M95 124h2M98 124h2M101 124h2M104 124h2M107 124h1M109 124h1M0 125h1M2 125h2M5 125h2M8 125h2M12 125h1M14 125h2M17 125h2M20 125h2M23 125h2M26 125h2M29 125h2M32 125h2M35 125h2M38 125h2M41 125h2M44 125h2M47 125h2M50 125h2M53 125h2M56 125h2M59 125h2M62 125h2M65 125h2M68 125h2M72 125h1M74 125h2M77 125h2M80 125h2M84 125h1M86 125h2M89 125h2M92 125h2M95 125h2M98 125h2M101 125h2M104 125h2M107 125h2M0 126h1M2 126h2M5 126h2M8 126h1M11 126h2M14 126h2M17 126h2M20 126h2M23 126h2M26 126h2M29 126h2M32 126h2M35 126h2M38 126h2M41 126h2M44 126h2M47 126h2M50 126h2M53 126h2M56 126h2M59 126h2M62 126h2M65 126h2M68 126h1M71 126h2M74 126h2M77 126h2M80 126h1M83 126h2M86 126h2M89 126h2M92 126h2M95 126h2M98 126h2M101 126h2M104 126h2M107 126h1M110 126h1M0 127h1M2 127h2M5 127h2M8 127h1M10 127h1M12 127h1M14 127h2M17 127h2M20 127h2M23 127h2M26 127h2M29 127h2M32 127h2M35 127h2M38 127h2M41 127h2M44 127h2M47 127h2M50 127h2M53 127h2M56 127h2M59 127h2M62 127h2M65 127h2M68 127h1M70 127h1M72 127h1M74 127h2M77 127h2M80 127h1M82 127h1M84 127h1M86 127h2M89 127h2M92 127h2M95 127h2M98 127h2M101 127h2M104 127h2M107 127h1M109 127h1M0 128h1M2 128h2M5 128h2M8 128h2M12 128h1M14 128h2M17 128h2M20 128h2M23 128h2M26 128h2M29 128h2M32 128h2M35 128h2M38 128h2M41 128h2M44 128h2M47 128h2M50 128h2M53 128h2M56 128h2M59 128h2M62 128h2M65 128h2M68 128h2M72 128h1M74 128h2M77 128h2M80 128h2M84 128h1M86 128h2M89 128h2M92 128h2M95 128h2M98 128h2M101 128h2M104 128h2M107 128h2M0 129h1M2 129h2M5 129h2M8 129h1M11 129h2M14 129h2M17 129h2M20 129h2M23 129h2M26 129h2M29 129h2M32 129h2M35 129h2M38 129h2M41 129h2M44 129h2M47 129h2M50 129h2M53 129h2M56 129h2M59 129h2M62 129h2M65 129h2M68 129h1M71 129h2M74 129h2M77 129h2M80 129h1M83 129h2M86 129h2M89 129h2M92 129h2M95 129h2M98 129h2M101 129h2M104 129h2M107 129h1M110 129h1M0 130h1M2 130h2M5 130h2M8 130h1M10 130h1M12 130h1M14 130h2M17 130h2M20 130h2M23 130h2M26 130h2M29 130h2M32 130h2M35 130h2M38 130h2M41 130h2M44 130h2M47 130h2M50 130h2M53 130h2M56 130h2M59 130h2M62 130h2M65 130h2M68 130h1M70 130h1M72 130h1M74 130h2M77 130h2M80 130h1M82 130h1M84 130h1M86 130h2M89 130h2M92 130h2M95 130h2M98 130h2M101 130h2M104 130h2M107 130h1M109 130h1M0 131h1M2 131h2M5 131h2M8 131h2M12 131h1M14 131h2M17 131h2M20 131h2M23 131h2M26 131h2M29 131h2M32 131h2M35 131h2M38 131h2M41 131h2M44 131h2M47 131h2M50 131h2M53 131h2M56 131h2M59 131h2M62 131h2M65 131h2M68 131h2M72 131h1M74 131h2M77 131h2M80 131h2M84 131h1M86 131h2M89 131h2M92 131h2M95 131h2M98 131h2M101 131h2M104 131h2M107 131h2M0 132h1M2 132h2M5 132h2M8 132h2M11 132h2M14 132h2M17 132h2M20 132h2M23 132h2M26 132h2M29 132h2M32 132h2M35 132h2M38 132h2M41 132h2M44 132h2M47 132h2M50 132h2M53 132h2M56 132h2M59 132h2M62 132h2M65 132h2M68 132h2M71 132h2M74 132h2M77 132h2M80 132h1M83 132h2M86 132h2M89 132h2M92 132h2M95 132h2M98 132h2M101 132h2M104 132h2M107 132h1M110 132h1M0 133h1M2 133h2M5 133h2M8 133h2M11 133h2M14 133h2M17 133h2M20 133h2M23 133h2M26 133h2M29 133h2M32 133h2M35 133h2M38 133h2M41 133h2M44 133h2M47 133h2M50 133h2M53 133h2M56 133h2M59 133h2M62 133h2M65 133h2M68 133h2M71 133h2M74 133h2M77 133h2M80 133h1M82 133h1M84 133h1M86 133h2M89 133h2M92 133h2M95 133h2M98 133h2M101 133h2M104 133h2M107 133h1M109 133h1M0 134h1M2 134h2M5 134h2M8 134h2M11 134h2M14 134h2M17 134h2M20 134h2M23 134h2M26 134h2M29 134h2M32 134h2M35 134h2M38 134h2M41 134h2M44 134h2M47 134h2M50 134h2M53 134h2M56 134h2M59 134h2M62 134h2M65 134h2M68 134h2M71 134h2M74 134h2M77 134h2M80 134h2M84 134h1M86 134h2M89 134h2M92 134h2M95 134h2M98 134h2M101 134h2M104 134h2M107 134h2M0 135h1M2 135h2M5 135h2M8 135h2M11 135h2M14 135h2M17 135h2M20 135h2M23 135h2M26 135h2M29 135h2M32 135h2M35 135h2M38 135h2M41 135h2M44 135h2M47 135h2M50 135h2M53 135h2M56 135h2M59 135h2M62 135h2M65 135h2M68 135h2M71 135h2M74 135h2M77 135h2M80 135h1M83 135h2M86 135h2M89 135h2M92 135h2M95 135h2M98 135h2M101 135h2M104 135h2M107 135h1M110 135h1M0 136h1M2 136h2M5 136h2M8 136h2M11 136h2M14 136h2M17 136h2M20 136h2M23 136h2M26 136h2M29 136h2M32 136h2M35 136h2M38 136h2M41 136h2M44 136h2M47 136h2M50 136h2M53 136h2M56 136h2M59 136h2M62 136h2M65 136h2M68 136h2M71 136h2M74 136h2M77 136h2M80 136h1M82 136h1M84 136h1M86 136h2M89 136h2M92 136h2M95 136h2M98 136h2M101 136h2M104 136h2M107 136h1M109 136h1M0 137h1M2 137h2M5 137h2M8 137h2M11 137h2M14 137h2M17 137h2M20 137h2M23 137h2M26 137h2M29 137h2M32 137h2M35 137h2M38 137h2M41 137h2M44 137h2M47 137h2M50 137h2M53 137h2M56 137h2M59 137h2M62 137h2M65 137h2M68 137h2M71 137h2M74 137h2M77 137h2M80 137h2M84 137h1M86 137h2M89 137h2M92 137h2M95 137h2M98 137h2M101 137h2M104 137h2M107 137h2M0 138h1M2 138h2M5 138h2M8 138h2M11 138h2M14 138h2M17 138h2M20 138h2M23 138h2M26 138h2M29 138h2M32 138h2M35 138h2M38 138h2M41 138h2M44 138h2M47 138h2M50 138h2M53 138h2M56 138h2M59 138h2M62 138h2M65 138h2M68 138h2M71 138h2M74 138h2M77 138h2M80 138h2M83 138h2M86 138h2M89 138h2M92 138h2M95 138h2M98 138h2M101 138h2M104 138h2M107 138h1M110 138h1M0 139h1M2 139h2M5 139h2M8 139h2M11 139h2M14 139h2M17 139h2M20 139h2M23 139h2M26 139h2M29 139h2M32 139h2M35 139h2M38 139h2M41 139h2M44 139h2M47 139h2M50 139h2M53 139h2M56 139h2M59 139h2M62 139h2M65 139h2M68 139h2M71 139h2M74 139h2M77 139h2M80 139h2M83 139h2M86 139h2M89 139h2M92 139h2M95 139h2M98 139h2M101 139h2M104 139h2M107 139h1M109 139h1M0 140h1M2 140h2M5 140h2M8 140h2M11 140h2M14 140h2M17 140h2M20 140h2M23 140h2M26 140h2M29 140h2M32 140h2M35 140h2M38 140h2M41 140h2M44 140h2M47 140h2M50 140h2M53 140h2M56 140h2M59 140h2M62 140h2M65 140h2M68 140h2M71 140h2M74 140h2M77 140h2M80 140h2M83 140h2M86 140h2M89 140h2M92 140h2M95 140h2M98 140h2M101 140h2M104 140h2M107 140h2" />
</svg>